<svg width="65" height="65" viewBox="0 0 65 65" fill="none" xmlns="http://www.w3.org/2000/svg">
<rect x="1.29999" y="0.703979" width="63" height="63" rx="31.5" fill="#03050D"/>
<rect x="1.29999" y="0.703979" width="63" height="63" rx="31.5" stroke="#202740"/>
<g clip-path="url(#clip0_1023_385)">
<path d="M43.9553 16.3918L43.8436 13.342" stroke="white" stroke-width="2.42817" stroke-linecap="round" stroke-linejoin="round"/>
<path d="M47.7287 19.8883L50.7688 19.7766H51.2301C52.1163 19.756 52.9579 19.3842 53.5699 18.7431C54.182 18.1019 54.5142 17.2439 54.4936 16.3577C54.473 15.4716 54.1012 14.63 53.46 14.0179C52.8189 13.4059 51.9609 13.0737 51.0747 13.0943H50.9776H50.5211" stroke="white" stroke-width="2.42817" stroke-linecap="round" stroke-linejoin="round"/>
<path d="M50.5259 13.0943V12.6378C50.5097 12.1991 50.4072 11.7678 50.2242 11.3686C50.0413 10.9695 49.7815 10.6103 49.4598 10.3115C49.138 10.0128 48.7606 9.78033 48.349 9.62745C47.9374 9.47456 47.4997 9.40424 47.0609 9.42051C46.6222 9.43677 46.1909 9.53929 45.7918 9.72223C45.3926 9.90516 45.0334 10.1649 44.7346 10.4867C44.4359 10.8084 44.2034 11.1859 44.0505 11.5975C43.8977 12.0091 43.8273 12.4467 43.8436 12.8855V13.342L43.9699 16.3918" stroke="white" stroke-width="2.42817" stroke-linecap="round" stroke-linejoin="round"/>
<path d="M50.7737 19.7766L47.7239 19.8883" stroke="white" stroke-width="2.42817" stroke-linecap="round" stroke-linejoin="round"/>
<path d="M47.7289 19.8883L47.2044 20.4565L43.2368 24.7543C43.0088 25.0041 42.7339 25.2065 42.4277 25.35C42.1216 25.4935 41.7901 25.5752 41.4523 25.5906C41.1145 25.6059 40.777 25.5545 40.4591 25.4394C40.1411 25.3242 39.849 25.1475 39.5994 24.9194C39.0981 24.4588 38.8001 23.818 38.771 23.1378C38.7418 22.4576 38.9839 21.7936 39.444 21.2918L43.4116 16.9891L43.9361 16.4257" stroke="white" stroke-width="2.42817" stroke-linecap="round" stroke-linejoin="round"/>
<path d="M21.6453 48.0162L21.757 51.066" stroke="white" stroke-width="2.42817" stroke-linecap="round" stroke-linejoin="round"/>
<path d="M17.8717 44.5197L14.8316 44.6313H14.3703C13.9315 44.6416 13.499 44.7381 13.0976 44.9154C12.6961 45.0927 12.3335 45.3474 12.0305 45.6649C11.7274 45.9824 11.4899 46.3564 11.3314 46.7657C11.1729 47.175 11.0966 47.6114 11.1068 48.0502C11.117 48.489 11.2135 48.9214 11.3909 49.3229C11.5682 49.7244 11.8229 50.087 12.1403 50.39C12.4578 50.693 12.8319 50.9306 13.2411 51.0891C13.6504 51.2475 14.0869 51.3239 14.5257 51.3137H14.6228H15.0793" stroke="white" stroke-width="2.42817" stroke-linecap="round" stroke-linejoin="round"/>
<path d="M15.0745 51.3136V51.7701C15.0907 52.2089 15.1933 52.6402 15.3762 53.0393C15.5591 53.4384 15.8189 53.7977 16.1406 54.0964C16.4624 54.3952 16.8398 54.6276 17.2514 54.7805C17.663 54.9334 18.1007 55.0037 18.5395 54.9874C18.9782 54.9712 19.4095 54.8687 19.8087 54.6857C20.2078 54.5028 20.567 54.243 20.8658 53.9213C21.1645 53.5995 21.397 53.2221 21.5499 52.8105C21.7027 52.3989 21.7731 51.9612 21.7568 51.5224V51.066L21.6305 48.0162" stroke="white" stroke-width="2.42817" stroke-linecap="round" stroke-linejoin="round"/>
<path d="M14.8221 44.6314L17.8719 44.5197" stroke="white" stroke-width="2.42817" stroke-linecap="round" stroke-linejoin="round"/>
<path d="M18.9354 43.3687L19.4648 42.8053L20.0524 42.1643" stroke="white" stroke-width="2.42817" stroke-linecap="round" stroke-linejoin="round"/>
<path d="M22.709 46.8652L23.2335 46.3019L23.8259 45.6657" stroke="white" stroke-width="2.42817" stroke-linecap="round" stroke-linejoin="round"/>
<path d="M47.2041 20.4565C51.2543 25.2643 52.2256 31.1162 49.2583 34.3019C45.9123 37.9053 38.7443 36.7204 33.2858 31.6601C27.8273 26.5998 26.0887 19.5775 29.4541 15.9401C32.4068 12.7786 38.317 13.2983 43.4162 16.9551" stroke="white" stroke-width="2.42817" stroke-linecap="round" stroke-linejoin="round"/>
<path d="M49.2585 34.3019L38.5211 45.894C37.6443 46.84 36.5898 47.6039 35.4177 48.1423C34.2456 48.6806 32.9789 48.9828 31.69 49.0315C30.4011 49.0802 29.1153 48.8745 27.9059 48.4261C26.6965 47.9778 25.5873 47.2956 24.6416 46.4185L19.2462 41.431C18.2978 40.5544 17.5316 39.4992 16.9915 38.326C16.4514 37.1527 16.1481 35.8845 16.099 34.5939C16.0498 33.3032 16.2557 32.0156 16.705 30.8047C17.1542 29.5937 17.8379 28.4833 18.7169 27.537L29.4786 15.9401" stroke="white" stroke-width="2.42817" stroke-linecap="round" stroke-linejoin="round"/>
</g>
<defs>
<clipPath id="clip0_1023_385">
<rect width="45.8245" height="48" fill="white" transform="translate(9.8877 8.20398)"/>
</clipPath>
</defs>
</svg>
