<svg width="521" height="125" viewBox="0 0 521 125" fill="none" xmlns="http://www.w3.org/2000/svg">
<path fill-rule="evenodd" clip-rule="evenodd" d="M107.792 19.7796L108.444 23.7282C108.96 27.4014 109.196 31.1095 109.158 34.8215C109.152 43.0182 108.163 51.1846 106.21 59.1454C103.569 69.961 98.9707 80.2018 92.6417 89.3612C85.3263 99.8843 74.7527 110.229 59.3345 118.545L57.4494 119.561L55.5643 118.545C40.1461 110.233 29.5764 99.8843 22.2572 89.365C15.9281 80.2057 11.3296 69.9649 8.68917 59.1493C6.73605 51.1873 5.74634 43.0197 5.74129 34.8215C5.7025 31.1134 5.93911 27.4053 6.45499 23.7321L7.10663 19.7835C7.17257 19.4573 7.1721 19.1211 7.10535 18.7951C7.03855 18.4691 6.90679 18.1598 6.71793 17.8858C6.52904 17.6118 6.28692 17.3787 6.00602 17.2003C5.72508 17.0218 5.41109 16.9018 5.08279 16.8474C4.75449 16.7929 4.41857 16.8051 4.09508 16.8833C3.7716 16.9615 3.46717 17.104 3.19995 17.3023C2.93272 17.5006 2.70818 17.7508 2.53971 18.0378C2.37124 18.3248 2.2623 18.6428 2.21937 18.9728L1.56773 22.9214C1.00441 26.8624 0.741185 30.8406 0.780338 34.8215C0.780338 43.4247 1.81985 51.9929 3.86785 60.3439C6.65688 71.7511 11.5118 82.5504 18.1922 92.2082C25.911 103.317 37.1129 114.244 53.2293 122.917L56.2935 124.565C56.6539 124.76 57.0573 124.861 57.4669 124.861C57.8765 124.861 58.2799 124.76 58.6402 124.565L61.6967 122.917C77.7975 114.24 89.0034 103.317 96.7338 92.2043C103.409 82.5481 108.26 71.7515 111.047 60.3478C113.098 51.9968 114.134 43.4286 114.138 34.8254C114.178 30.8459 113.916 26.8691 113.354 22.9292L112.699 18.9767C112.591 18.3286 112.231 17.7497 111.697 17.3675C111.162 16.9852 110.498 16.8309 109.85 16.9384C109.202 17.0459 108.623 17.4064 108.241 17.9407C107.859 18.475 107.704 19.1392 107.812 19.7873L107.788 19.7796H107.792Z" fill="white"/>
<path fill-rule="evenodd" clip-rule="evenodd" d="M20.6434 17.0865L57.4533 5.83798L95.0892 17.3269C95.4014 17.4217 95.7292 17.454 96.0538 17.422C96.3785 17.3901 96.6938 17.2945 96.9816 17.1407C97.2694 16.9869 97.5239 16.7779 97.731 16.5257C97.9381 16.2735 98.0933 15.983 98.1883 15.6707C98.283 15.3584 98.3152 15.0306 98.2834 14.7059C98.2512 14.3811 98.1557 14.0659 98.0017 13.7781C97.8482 13.4903 97.6391 13.2356 97.387 13.0286C97.1348 12.8216 96.8443 12.6663 96.5321 12.5716L58.1747 0.857602C57.7043 0.713563 57.202 0.713563 56.7318 0.857602L19.1928 12.3233C18.8803 12.4183 18.5895 12.5739 18.3372 12.7813C18.0848 12.9886 17.8758 13.2436 17.722 13.5318C17.4114 14.1137 17.3447 14.7952 17.5365 15.4263C17.7284 16.0575 18.1631 16.5865 18.745 16.8971C19.3269 17.2077 20.0084 17.2744 20.6396 17.0826L20.6434 17.0865Z" fill="white"/>
<path fill-rule="evenodd" clip-rule="evenodd" d="M2.4672 20.5048L55.2381 123.506C55.4449 123.908 55.7575 124.245 56.1419 124.482C56.5263 124.719 56.9684 124.846 57.4199 124.85C57.8714 124.854 58.3155 124.735 58.7042 124.505C59.0929 124.274 59.4113 123.942 59.625 123.545L91.8073 63.3539L91.8539 63.2608L112.454 20.4389C112.701 19.8531 112.714 19.1948 112.49 18.5998C112.266 18.0048 111.823 17.5183 111.251 17.2408C110.678 16.9633 110.022 16.9158 109.416 17.1081C108.81 17.3004 108.301 17.7179 107.994 18.2745L87.4282 61.0615L57.5188 117.032L6.87351 18.2435C6.73546 17.9373 6.5366 17.6623 6.28902 17.4353C6.04143 17.2083 5.75029 17.034 5.43328 16.923C5.11626 16.8119 4.77997 16.7665 4.44487 16.7894C4.10975 16.8123 3.7828 16.9031 3.48385 17.0563C3.1849 17.2094 2.9202 17.4218 2.70583 17.6804C2.49146 17.939 2.33189 18.2384 2.23681 18.5606C2.14173 18.8827 2.11312 19.2209 2.15273 19.5544C2.19233 19.888 2.29933 20.2139 2.4672 20.5048Z" fill="white"/>
<path fill-rule="evenodd" clip-rule="evenodd" d="M27.7301 66.3793H86.4162C86.7498 66.3925 87.0822 66.3382 87.3944 66.2195C87.7063 66.1012 87.991 65.9209 88.2319 65.6897C88.4723 65.4581 88.664 65.1808 88.7947 64.8736C88.9254 64.5668 88.9929 64.2363 88.9929 63.9027C88.9929 63.5688 88.9254 63.2387 88.7947 62.9315C88.664 62.6243 88.4723 62.347 88.2319 62.1158C87.991 61.8846 87.7063 61.7042 87.3944 61.5855C87.0822 61.4672 86.7498 61.4129 86.4162 61.4261H27.7262C27.0863 61.4513 26.4811 61.7232 26.0373 62.1852C25.5935 62.6468 25.3457 63.2623 25.3457 63.9027C25.3457 64.5431 25.5935 65.1587 26.0373 65.6203C26.4811 66.0818 27.0902 66.3537 27.7301 66.3793ZM191.415 45.0072H153.24C152.58 45.0103 151.948 45.2741 151.481 45.7411C151.015 46.2085 150.752 46.8411 150.75 47.5013V78.1437C150.754 78.8027 151.017 79.4338 151.484 79.9C151.949 80.3659 152.581 80.6296 153.24 80.6339H191.419V85.8237H153.24C152.233 85.8276 151.235 85.6325 150.303 85.2489C149.372 84.8653 148.526 84.3013 147.814 83.5891C147.102 82.877 146.537 82.0306 146.154 81.0993C145.771 80.168 145.575 79.17 145.579 78.1631V47.5207C145.574 46.513 145.768 45.5142 146.151 44.5821C146.534 43.6504 147.098 42.8037 147.81 42.0911C148.523 41.3786 149.37 40.8146 150.302 40.4314C151.233 40.0486 152.232 39.8542 153.24 39.8601H191.419L191.415 45.0072ZM263.107 39.8368V45.0266H226.336V60.1927H255.892V65.429H226.336V80.6261H263.103V85.8159H221.142V39.8368H263.107Z" fill="white"/>
<path d="M338.817 47.5579V61.029C338.821 62.0363 338.625 63.0343 338.242 63.9656C337.859 64.8969 337.294 65.7429 336.582 66.455C335.87 67.1671 335.024 67.7311 334.093 68.1147C333.161 68.4983 332.163 68.6938 331.156 68.6896H324.135L338.565 85.795H331.73L317.367 68.6896H300.494C299.66 68.6469 298.829 68.5616 298.004 68.4336V85.7989H292.814V39.8973H331.117C332.125 39.8938 333.122 40.0893 334.053 40.4733C334.984 40.8569 335.83 41.4209 336.542 42.1331C337.254 42.8452 337.819 43.6912 338.202 44.6221C338.586 45.5534 338.782 46.551 338.778 47.5579H338.817ZM300.514 63.4571H331.156C331.476 63.4625 331.795 63.4032 332.092 63.2829C332.389 63.1627 332.658 62.9843 332.885 62.7577C333.111 62.5312 333.29 62.2613 333.41 61.9645C333.53 61.6674 333.59 61.3494 333.584 61.029V47.5579C333.59 47.2337 333.531 46.9113 333.411 46.6096C333.291 46.3082 333.113 46.0332 332.886 45.8008C332.665 45.5638 332.396 45.3757 332.097 45.2497C331.799 45.1232 331.476 45.0612 331.152 45.0677H300.51C299.85 45.0709 299.219 45.3342 298.752 45.8005C298.286 46.2667 298.023 46.8985 298.02 47.5579V61.029C298.013 61.3532 298.076 61.6748 298.203 61.9731C298.33 62.2713 298.518 62.539 298.757 62.7589C298.989 62.9862 299.263 63.165 299.565 63.2849C299.867 63.4047 300.189 63.4633 300.514 63.4571Z" fill="white"/>
<path fill-rule="evenodd" clip-rule="evenodd" d="M366.271 39.8368H412.219V45.0266H391.886V85.816H386.696V45.0266H366.271V39.8368ZM440.065 85.8004V39.8368H445.255V85.8004H440.065ZM514.247 39.8368H520.883L501.672 62.8147L520.949 85.7966H514.247L497.137 65.4329H482.328V85.7966H477.099V39.8329H482.336V60.1927H497.145L514.247 39.829V39.8368Z" fill="white"/>
</svg>
