<svg width="65" height="65" viewBox="0 0 65 65" fill="none" xmlns="http://www.w3.org/2000/svg">
<rect x="1.29999" y="0.703979" width="63" height="63" rx="31.5" fill="#03050D"/>
<rect x="1.29999" y="0.703979" width="63" height="63" rx="31.5" stroke="#202740"/>
<g clip-path="url(#clip0_1023_406)">
<path d="M47.1364 31.4681C46.9294 31.4681 46.7029 31.4986 46.4642 31.5586C45.693 31.7536 45.4248 32.1153 45.335 32.3846C45.2412 32.666 45.3024 32.9759 45.5084 33.2268C45.6594 33.3721 45.8573 33.4534 46.0684 33.4534C46.1388 33.4534 46.2092 33.4433 46.2704 33.427C46.9732 33.2705 47.8739 33.0348 48.1718 32.8052C48.3574 32.6619 48.4197 32.4018 48.3309 32.1448C48.2177 31.8176 47.8454 31.4681 47.1364 31.4681Z" fill="white"/>
<path d="M42.8981 38.19C42.5441 38.19 42.2565 38.4664 42.2432 38.8189C42.2065 39.9477 42.691 40.6813 43.5785 40.854V41.3C43.4428 41.3651 43.3234 41.4636 43.2337 41.5845H42.3095C42.282 41.5835 42.231 41.5825 42.1657 41.5825C41.9974 41.5825 41.3415 41.5947 41.3415 41.5947L41.2823 41.6008L41.2537 41.613C41.1344 41.6638 41.0762 41.8029 41.1313 41.936C41.2221 42.1108 41.2721 42.3089 41.2782 42.5223C41.2966 42.6645 41.419 42.7712 41.5669 42.7712H41.6026L41.8923 43.5352L41.9351 43.6033C41.9749 43.648 42.0341 43.6734 42.0943 43.6734L42.2065 43.6582L42.2524 43.6043C42.3217 43.5251 42.3829 43.4397 42.4431 43.3412L42.4768 43.2497V42.4014C42.6165 42.4197 42.7614 42.4349 42.9093 42.4481C43.2571 42.4796 43.6264 42.4979 44.0436 42.4979C44.4271 42.4979 44.7974 42.4806 45.1504 42.4512C45.2983 42.438 45.4421 42.4227 45.5829 42.4044V43.2132L45.5992 43.3137L45.6206 43.3493C45.6747 43.4407 45.7379 43.5271 45.8185 43.6185L45.9022 43.6734L45.9654 43.6754L46.1245 43.6358L46.453 42.7732H46.4958C46.6407 42.7732 46.761 42.6666 46.7794 42.5101C46.7855 42.311 46.8355 42.1138 46.9294 41.9269L46.9457 41.8761V41.8507C46.9549 41.7207 46.8559 41.6079 46.7182 41.5997C46.7182 41.5997 46.0776 41.5886 45.9052 41.5886C45.8328 41.5886 44.824 41.5906 44.824 41.5906C44.7342 41.4697 44.6148 41.3711 44.4802 41.3051V40.857C45.3707 40.6833 45.8542 39.9498 45.8134 38.822C45.8032 38.4684 45.5166 38.1921 45.1616 38.1921H42.9001L42.8981 38.19Z" fill="white"/>
<path d="M46.0296 35.4996C45.9582 35.6561 45.9491 35.8055 46.0072 35.9568C46.1041 36.1519 46.3459 36.2505 46.7243 36.2505C47.5557 36.2505 48.9348 35.7862 49.7274 35.2436C49.9385 35.1197 50.0579 34.8921 50.0375 34.6421L49.9304 33.7978C49.9304 33.747 49.9212 33.6983 49.9038 33.6536C49.8426 33.492 49.6855 33.3833 49.5121 33.3833C49.4621 33.3833 49.4132 33.3924 49.3663 33.4097C49.3377 33.4209 46.4723 34.5212 46.0296 35.4996Z" fill="white"/>
<path d="M44.0273 43.7313H44.0426C44.2803 43.7161 44.3925 43.4824 44.4741 43.3117C44.5036 43.2518 44.5465 43.1603 44.5424 43.1502C44.5648 43.1502 44.5771 43.1603 44.625 43.2152C44.6822 43.2802 44.7678 43.3798 44.93 43.3798L45.0208 43.3696L45.0392 43.3635C45.2442 43.3036 45.385 43.1126 45.3809 42.9033V42.5832H42.6726V42.9002C42.6686 43.1126 42.8083 43.3046 43.0235 43.3666L43.1286 43.3788C43.2857 43.3788 43.3724 43.2802 43.4285 43.2142C43.4764 43.1603 43.4897 43.1491 43.4805 43.14C43.504 43.1583 43.5478 43.2477 43.5764 43.3066C43.6601 43.4804 43.7641 43.6937 44.0273 43.7303V43.7313Z" fill="white"/>
<path d="M49.5224 28.3348C49.6285 28.4018 49.7305 28.4668 49.8325 28.538C49.9335 28.6081 50.0334 28.6802 50.1313 28.7564C50.3792 28.9454 50.6128 29.1496 50.8301 29.365C50.9188 29.4514 51.0055 29.5418 51.0912 29.6332L51.2177 29.7744C51.2616 29.8212 51.3044 29.87 51.3932 29.9776L51.4737 30.0762C51.5574 30.1819 51.639 30.2906 51.7175 30.4003L51.9879 30.8301V30.3546C52.4581 28.8915 52.9651 26.826 52.709 25.304L52.6693 25.0886C52.6438 24.9769 52.6142 24.8651 52.5785 24.7564L52.5285 24.605L52.3796 24.6609C52.3122 24.6873 52.2449 24.7168 52.1878 24.7483C52.1398 24.7716 52.0899 24.797 52.044 24.8245C51.9919 24.8519 51.9389 24.8844 51.8808 24.92L51.7084 25.0317L51.4554 25.2085L51.0963 25.4859C50.7893 25.7328 50.4598 26.0264 50.1181 26.3566L49.7682 26.7031C49.7682 26.7031 49.5601 26.9154 49.4897 26.9926C49.3214 27.1694 49.15 27.3574 48.9746 27.5565L48.8042 27.7546L48.7145 27.8979L48.8665 27.9721C49.0358 28.0543 49.2021 28.1468 49.3632 28.2393C49.4173 28.2697 49.4693 28.3002 49.5213 28.3338L49.5224 28.3348Z" fill="white"/>
<path d="M41.5954 31.5586C41.3568 31.4986 41.1313 31.4681 40.9232 31.4681C40.2153 31.4681 39.842 31.8187 39.7298 32.1458C39.641 32.4029 39.7043 32.6619 39.8899 32.8062C40.1847 33.0338 41.0854 33.2705 41.7842 33.427C41.8525 33.4453 41.9219 33.4534 41.9923 33.4534C42.2034 33.4534 42.4013 33.3732 42.5645 33.2147C42.7593 32.9769 42.8205 32.666 42.7267 32.3856C42.638 32.1164 42.3687 31.7547 41.5965 31.5596L41.5954 31.5586Z" fill="white"/>
<path d="M53.9137 31.8989C55.2888 28.4811 55.4713 24.9525 54.3554 23.3025C53.926 22.6685 53.317 22.3342 52.5948 22.3342C51.1585 22.3342 49.2857 23.6439 47.1772 26.1239C46.5866 25.9908 45.9817 25.8974 45.3758 25.8476C44.9331 25.8191 44.4894 25.8059 44.0456 25.8059C43.6019 25.8059 43.1582 25.8191 42.7124 25.8476C42.0749 25.8994 41.4353 26 40.811 26.1463C39.7277 24.8732 38.7097 23.9111 37.7804 23.269C37.6427 23.8135 37.4795 24.3622 37.2918 24.9159C37.3316 24.9464 37.3632 24.9647 37.404 24.9962C38.4322 25.8445 39.3636 26.8148 40.1704 27.8776L40.2357 27.9629L40.3398 27.9304C41.4802 27.5656 42.6655 27.3797 43.8641 27.3797H44.1895C45.3564 27.3797 46.5132 27.5555 47.6281 27.9009L47.7301 27.9324L47.7954 27.8481C48.5972 26.7965 49.5183 25.8394 50.5281 25.0033C51.5094 24.227 52.2051 23.969 52.6182 23.8897C52.6437 23.8836 52.6713 23.8816 52.6978 23.8816C52.8508 23.8816 52.9926 23.971 53.0558 24.1082C53.4618 24.9891 53.5832 26.1341 53.42 27.5098C53.2109 29.0165 52.8039 30.4917 52.2092 31.8969L52.1837 31.9578L52.2102 32.0178C52.9732 33.6993 53.4741 35.4793 53.7015 37.3152C53.7474 37.616 53.7576 37.9228 53.7321 38.2276L53.7107 38.4968C53.6261 39.1501 53.3792 39.7729 52.9916 40.3135C51.4125 42.5588 49.0898 44.22 46.4509 44.9901C45.7236 45.1994 44.9719 45.3203 44.165 45.3488V45.2929H44.012L43.863 45.3498C41.2935 45.2756 37.6733 43.9182 35.0711 40.3124C35.0038 40.218 34.9477 40.1174 34.8896 40.0188C34.5172 40.3836 34.1347 40.7321 33.7349 41.0521C35.8423 44.7311 40.656 46.9053 44.0487 46.9104H44.0507C47.6046 46.8626 53.4118 44.4435 55.202 39.1918C55.6244 36.7188 54.588 33.5845 53.9147 31.8979L53.9137 31.8989Z" fill="white"/>
<path d="M38.5955 33.3833C38.5833 33.3833 38.573 33.3894 38.5618 33.3904C38.5384 33.6607 38.5169 33.9309 38.471 34.1951L38.4435 34.3597L38.3894 34.5172C38.3293 34.6939 38.2517 34.8555 38.1854 35.0272C38.2354 35.1064 38.2925 35.1837 38.3731 35.2385C39.1749 35.7882 40.554 36.2525 41.3843 36.2525C41.7638 36.2525 42.0045 36.1529 42.1055 35.9447C42.1586 35.8065 42.1494 35.6571 42.079 35.4996C41.6373 34.5222 38.7709 33.4209 38.7434 33.4107C38.6965 33.3924 38.6475 33.3843 38.5955 33.3843V33.3833Z" fill="white"/>
<path d="M39.3269 17.4909H44.5404L43.6499 18.3779C43.0797 18.9459 43.0797 19.8674 43.6499 20.4363C43.9355 20.7208 44.3089 20.8631 44.6832 20.8631C45.0576 20.8631 45.4309 20.7208 45.7165 20.4363L49.0583 17.1079C49.3327 16.8346 49.4867 16.4648 49.4867 16.0787C49.4867 15.6926 49.3327 15.3228 49.0583 15.0495L45.6309 11.6357C45.0606 11.0678 44.1354 11.0678 43.5642 11.6357C42.994 12.2037 42.994 13.1252 43.5642 13.6941L44.4547 14.5811H39.3269C38.52 14.5811 37.8661 15.2324 37.8661 16.036C37.8661 16.8397 38.52 17.4909 39.3269 17.4909Z" fill="white"/>
<path d="M33.5655 47.7842H28.352L29.2425 46.8972C29.8127 46.3293 29.8127 45.4077 29.2425 44.8388C28.6723 44.2708 27.7471 44.2708 27.1759 44.8388L23.8342 48.1672C23.2639 48.7352 23.2639 49.6567 23.8342 50.2256L27.2616 53.6394C27.5472 53.9239 27.9205 54.0661 28.2949 54.0661C28.6692 54.0661 29.0426 53.9239 29.3282 53.6394C29.8984 53.0715 29.8984 52.1499 29.3282 51.581L28.4377 50.694H33.5655C34.3724 50.694 35.0263 50.0428 35.0263 49.2391C35.0263 48.4354 34.3724 47.7842 33.5655 47.7842Z" fill="white"/>
<path d="M30.2667 27.5687C30.2667 27.5098 30.2565 27.4529 30.2361 27.4011C30.1647 27.2131 29.9821 27.0871 29.7801 27.0871C29.723 27.0871 29.6649 27.0973 29.6108 27.1176C29.5771 27.1308 26.2446 28.41 25.7305 29.5489C25.6479 29.7308 25.6366 29.9045 25.704 30.0813C25.8172 30.3079 26.0977 30.4227 26.5373 30.4227C27.5033 30.4227 29.1079 29.8832 30.03 29.2512C30.2759 29.1069 30.4146 28.8418 30.3901 28.5512L30.2657 27.5687H30.2667Z" fill="white"/>
<path d="M18.59 26.4145C18.9328 26.6787 19.9804 26.954 20.7923 27.1369C20.8719 27.1572 20.9525 27.1684 21.0341 27.1684C21.2789 27.1684 21.5094 27.0749 21.6992 26.891C21.9256 26.6147 21.996 26.254 21.8879 25.9269C21.7838 25.6139 21.4717 25.1933 20.574 24.9657C20.2966 24.8956 20.0334 24.86 19.7927 24.86C18.9695 24.86 18.5349 25.2675 18.4044 25.6485C18.3013 25.9482 18.3738 26.2489 18.59 26.4156V26.4145Z" fill="white"/>
<path d="M17.88 20.7371L17.7362 20.5654C16.8947 19.5646 15.9511 18.639 14.9331 17.815C14.5944 17.5428 14.2343 17.2989 13.862 17.0896C13.7631 17.0358 13.659 16.987 13.5519 16.9433L13.3581 16.924L13.3 17.1079C13.2653 17.2166 13.2357 17.3274 13.2112 17.4412C13.1816 17.5743 13.1571 17.7124 13.1378 17.8587C13.0439 18.7884 13.0878 19.7272 13.2673 20.6436C13.304 20.862 13.3448 21.0764 13.3928 21.2918C13.5682 22.1046 13.7896 22.9164 14.0507 23.7038L14.1619 24.0421L14.3649 23.7495C14.573 23.4498 14.8015 23.1592 15.0412 22.8839C15.182 22.7244 15.3278 22.57 15.4778 22.4236C15.5778 22.3251 15.6787 22.2286 15.7838 22.1361C16.3561 21.622 16.9946 21.1851 17.6811 20.8387L17.88 20.7371Z" fill="white"/>
<path d="M21.1667 30.064C21.2279 29.9035 21.2177 29.7287 21.1361 29.5469C20.623 28.4099 17.2895 27.1298 17.2568 27.1176C17.2028 27.0973 17.1456 27.0861 17.0844 27.0861C16.8182 27.0861 16.5999 27.3025 16.5999 27.5463L16.4734 28.5695C16.4714 28.8387 16.603 29.0897 16.8264 29.2421C17.7587 29.8811 19.3622 30.4216 20.3282 30.4216C20.7699 30.4216 21.0494 30.3058 21.1667 30.064Z" fill="white"/>
<path d="M29.6077 21.1059C29.67 21.1415 29.7312 21.177 29.7924 21.2156C29.9158 21.2939 30.0341 21.369 30.1524 21.4513C30.2708 21.5336 30.386 21.6169 30.5003 21.7053C30.7879 21.9248 31.0603 22.1625 31.3133 22.4135C31.4163 22.5141 31.5173 22.6187 31.6173 22.7254L31.7641 22.89C31.8151 22.9449 31.8651 23.0018 31.9671 23.1267L32.061 23.2415C32.1589 23.3645 32.2528 23.4905 32.3446 23.6185L32.6587 24.1173V23.5646C33.2055 21.8628 33.7951 19.461 33.4972 17.6911L33.4503 17.4412C33.4207 17.3111 33.3871 17.1811 33.3452 17.0541L33.2871 16.8783L33.1137 16.9433C33.0351 16.9738 32.9576 17.0083 32.8913 17.0449C32.8362 17.0713 32.7781 17.1018 32.724 17.1333C32.6628 17.1648 32.6016 17.2024 32.5343 17.2441L32.3333 17.3741L32.0396 17.5793L31.6213 17.9024C31.2643 18.19 30.8818 18.5303 30.484 18.9154L30.077 19.3187C30.077 19.3187 29.8352 19.5666 29.7526 19.655C29.5567 19.8613 29.3568 20.0797 29.1538 20.3104L28.9559 20.54L28.8519 20.7066L29.0294 20.793C29.2262 20.8885 29.42 20.9962 29.6067 21.1039L29.6077 21.1059Z" fill="white"/>
<path d="M23.9219 38.632C23.9555 38.5619 24.0055 38.4562 24.0004 38.444C24.0269 38.444 24.0412 38.4562 24.0973 38.5192C24.1636 38.5954 24.2636 38.7102 24.4523 38.7102L24.5584 38.699L24.5798 38.6919C24.8185 38.6228 24.9817 38.4003 24.9766 38.1565V37.7846H21.8277V38.1534C21.8226 38.4003 21.9858 38.6228 22.2357 38.696L22.3571 38.7112C22.5397 38.7112 22.6407 38.5964 22.706 38.5202C22.761 38.4572 22.7774 38.445 22.7661 38.4349C22.7937 38.4562 22.8447 38.5598 22.8773 38.6289C22.9742 38.8301 23.0956 39.08 23.4016 39.1217H23.42C23.6964 39.1034 23.827 38.8321 23.9219 38.634V38.632Z" fill="white"/>
<path d="M23.418 37.6851C23.8637 37.6851 24.2942 37.6648 24.7053 37.6302C24.8767 37.615 25.045 37.5977 25.2082 37.5754V38.5162L25.2265 38.633L25.252 38.6747C25.3143 38.7814 25.3887 38.8809 25.4826 38.9876L25.5805 39.0516L25.655 39.0547L25.8396 39.0089L26.2221 38.0051H26.2721C26.4404 38.0051 26.5802 37.8802 26.6026 37.6993C26.6098 37.4687 26.6679 37.238 26.777 37.0206L26.7964 36.9607L26.7985 36.9312C26.8076 36.7798 26.6924 36.6488 26.5322 36.6386C26.5322 36.6386 25.7866 36.6254 25.5866 36.6254C25.502 36.6254 24.3299 36.6284 24.3299 36.6284C24.2248 36.4872 24.0871 36.3734 23.9301 36.2962V35.775C24.9654 35.5738 25.5285 34.7204 25.4805 33.4087C25.4693 32.9983 25.1358 32.6762 24.7216 32.6762H22.0919C21.6798 32.6762 21.3462 32.9983 21.3309 33.4077C21.2881 34.7204 21.8512 35.5738 22.8845 35.775V36.2942C22.7264 36.3704 22.5887 36.4842 22.4836 36.6254H21.4085C21.3758 36.6234 21.3177 36.6223 21.2412 36.6223C21.0453 36.6223 20.2823 36.6366 20.2823 36.6366L20.214 36.6437L20.1813 36.6579C20.0416 36.7168 19.9743 36.8784 20.0385 37.0338C20.1436 37.237 20.2017 37.4677 20.2089 37.7156C20.2303 37.8812 20.3721 38.0041 20.5445 38.0041H20.5853L20.9229 38.8931L20.9729 38.9713C21.0198 39.0232 21.0871 39.0526 21.1575 39.0526L21.2881 39.0343L21.3411 38.9724C21.4217 38.8799 21.4931 38.7814 21.5635 38.6665L21.6023 38.5599V37.5723C21.7645 37.5926 21.9328 37.6109 22.1062 37.6272C22.5111 37.6637 22.9396 37.6851 23.4251 37.6851H23.418Z" fill="white"/>
<path d="M23.4262 42.8189H23.4282C27.5615 42.7631 34.3153 39.9497 36.3973 33.8435C36.8889 30.9682 35.6832 27.3218 34.8998 25.3609C36.4993 21.3853 36.7114 17.2827 35.4129 15.3634C34.9131 14.6268 34.2062 14.2367 33.3656 14.2367C31.6958 14.2367 29.518 15.7597 27.0647 18.6441C26.3772 18.4897 25.6744 18.381 24.9695 18.323C24.4544 18.2905 23.9382 18.2743 23.4231 18.2743C22.908 18.2743 22.3918 18.2895 21.8726 18.323C21.131 18.384 20.3874 18.4998 19.6611 18.6705C17.1895 15.7658 15.0025 14.2326 13.3357 14.2326C12.4942 14.2326 11.7862 14.6258 11.2884 15.3705C9.96441 17.3528 10.2051 21.5245 11.8719 25.5357C11.365 26.829 10.2602 29.9797 10.301 32.8204C11.2436 39.0038 18.5809 42.8108 23.4251 42.8189H23.4262ZM23.2079 41.0044C20.2201 40.918 16.0093 39.3401 12.9838 35.1461C12.4942 34.4613 12.1983 33.6607 12.1269 32.8245L12.132 32.8214L12.1229 32.7026C12.0963 32.3541 12.1086 32.0015 12.1586 31.653C12.4187 29.5834 12.9777 27.5636 13.8182 25.6505L13.8488 25.5804L13.8182 25.5092C13.0909 23.8257 12.5941 22.0508 12.3432 20.2372C12.1586 18.64 12.3014 17.3152 12.7675 16.3002C12.844 16.1396 13.0083 16.035 13.1858 16.035C13.2174 16.035 13.248 16.038 13.2816 16.0452C13.757 16.1366 14.5628 16.4363 15.6972 17.3335C16.8937 18.321 17.976 19.4488 18.9144 20.6853L18.9899 20.7848L19.1103 20.7462C20.4364 20.3215 21.8155 20.1061 23.2089 20.1061H23.5873C24.944 20.1061 26.2895 20.3103 27.586 20.7117L27.7053 20.7482L27.7808 20.6497C28.7131 19.4274 29.7842 18.3139 30.9593 17.3416C32.1008 16.4394 32.9097 16.1386 33.3901 16.0462C33.4207 16.0391 33.4523 16.037 33.4819 16.037C33.6604 16.037 33.8236 16.1407 33.8991 16.3002C34.3704 17.3243 34.5122 18.6563 34.3224 20.2555C34.0797 22.0071 33.6064 23.7241 32.9148 25.3579L32.8852 25.429L32.9158 25.4991C33.8032 27.4539 34.3857 29.5245 34.6499 31.6591C34.7029 32.0086 34.7152 32.3663 34.6856 32.7209L34.6601 33.0338C34.5611 33.7938 34.2745 34.5172 33.8236 35.1461C31.9875 37.7572 29.2864 39.6886 26.217 40.5847C25.3704 40.8286 24.4972 40.9688 23.5577 41.0023V40.9373H23.3792L23.2058 41.0033L23.2079 41.0044Z" fill="white"/>
<path d="M25.7753 27.1684C25.8569 27.1684 25.9386 27.1572 26.01 27.1379C26.827 26.955 27.8736 26.6817 28.2214 26.4145C28.4367 26.2479 28.5101 25.9451 28.4061 25.6464C28.2745 25.2654 27.842 24.859 27.0178 24.859C26.777 24.859 26.5139 24.8946 26.2364 24.9647C25.3398 25.1912 25.0276 25.6119 24.9236 25.9248C24.8144 26.252 24.8848 26.6126 25.1245 26.9042C25.3 27.0739 25.5305 27.1684 25.7764 27.1684H25.7753Z" fill="white"/>
</g>
<defs>
<clipPath id="clip0_1023_406">
<rect width="45" height="42.8571" fill="white" transform="translate(10.3 11.209)"/>
</clipPath>
</defs>
</svg>
