<svg width="201" height="39" viewBox="0 0 201 39" fill="none" xmlns="http://www.w3.org/2000/svg">
<g clip-path="url(#clip0_1035_11)">
<path d="M44.9365 11.2258C43.1485 11.2258 41.0381 11.7999 39.5724 13.6938V4.14916H34.7976C35.4171 3.27277 35.8452 2.25535 36.0366 1.13216C36.097 0.779589 35.9409 0.391761 35.8855 0.019043C35.5531 0.195328 35.13 0.296063 34.9033 0.568046C33.6492 2.05388 32.0223 2.79932 30.1336 2.7288C28.1692 2.65325 26.21 2.35608 24.2557 2.12943C20.4278 1.68116 16.6049 0.860176 12.772 0.829956C6.10838 0.769515 1.84227 5.07088 0.205338 11.1552C0.119714 11.4776 0.34133 11.8856 0.416881 12.2533C0.562946 12.2079 0.709011 12.1626 0.855076 12.1122C3.75623 5.69543 9.38225 4.64276 12.908 5.69543C8.85843 8.3246 5.72559 11.6085 4.21457 16.2071C2.70355 20.8006 2.7791 25.2984 5.13629 29.6098C8.65193 36.0467 16.7711 39.2904 24.1348 37.2556C28.3203 36.0971 32.4656 32.7275 34.5659 29.1666H39.5371V20.2314C39.5371 17.4058 41.3252 15.9049 43.4708 15.9049C45.6165 15.9049 46.8303 17.2648 46.8303 19.7278V29.1615H51.9778V19.6875C51.9778 13.3966 49.0817 11.2157 44.9365 11.2157V11.2258ZM12.918 29.9221C5.61982 23.7068 6.9747 8.83835 15.2198 5.73069C15.245 6.06815 15.2903 6.37539 15.2903 6.68767C15.2903 12.2331 15.3004 17.7785 15.2803 23.324C15.2803 24.3313 15.1543 25.3336 15.0989 26.341C15.0083 27.9275 14.2729 29.1162 12.9231 29.9322L12.918 29.9221ZM24.1247 32.9643C20.1105 33.5284 16.6805 32.7729 14.1722 30.7582C15.1443 29.9422 16.071 29.1011 17.0582 28.3456C19.5816 26.4165 20.7401 23.9435 20.6544 20.725C20.5336 16.0711 20.6242 11.4071 20.6242 6.60204C21.8532 6.82366 22.9713 7.03017 24.1247 7.23667V32.9643ZM25.4897 32.7678V7.54391C26.4114 7.54391 27.2526 7.57413 28.0887 7.53888C30.7077 7.4331 32.9441 6.37035 34.3846 4.67298V26.1395C34.1932 26.4316 34.0018 26.7238 33.7852 26.9957C31.6144 29.7609 28.9701 31.8411 25.4847 32.7628L25.4897 32.7678Z" fill="white"/>
<path d="M63.0232 11.0444C57.2712 11.0444 53.6599 14.7968 53.6599 20.1609C53.6599 25.8071 57.1604 29.5594 63.5621 29.5594C66.2064 29.5594 69.2435 28.809 71.1424 26.9504L68.2463 23.7319C66.9972 24.8048 65.0631 25.1271 63.6729 25.1271C60.7768 25.1271 59.1348 23.7319 58.883 22.0195H71.8576C72.9657 14.8018 69.032 11.0444 63.0282 11.0444H63.0232ZM58.878 18.2621C59.3766 16.5093 60.9531 15.4365 63.0232 15.4365C65.0933 15.4365 67.1332 16.328 67.2389 18.2621H58.878Z" fill="white"/>
<path d="M124.426 11.9761C122.638 11.9761 120.527 12.5503 119.067 14.4441V4.89953H113.884V19.4859C113.688 18.9822 113.441 18.4735 113.129 17.9698C111.29 15.0032 108.379 13.6634 105.04 13.2454C103.02 12.9936 100.965 12.9784 98.7839 12.8424C100.718 9.4477 102.622 6.11338 104.576 2.69345C104.208 2.48694 103.916 2.31569 103.599 2.13941C103.02 3.09135 102.501 3.94759 101.942 4.86428C98.7285 3.72094 95.5755 2.6179 92.4326 1.46952C91.7728 1.22776 91.2742 1.23783 90.7403 1.75158C89.0379 3.36837 87.2196 4.87939 85.5877 6.56165C84.0666 8.13311 82.6966 9.92619 82.329 12.1423C82.0973 13.5375 81.5986 14.3686 80.3193 15.0636C78.2996 16.1566 77.4786 18.0555 77.6851 20.3724C77.8866 22.6036 79.2364 23.9232 81.1705 24.7493C81.78 25.0112 82.4398 25.2529 83.0945 25.3184C85.2956 25.54 87.5017 25.6811 89.7934 25.8573C89.466 26.4517 89.048 27.0712 88.7709 27.7562C88.363 28.7484 87.7283 28.8844 86.6958 28.8139C84.9531 28.6981 83.155 28.6779 81.4475 28.9751C79.3774 29.3377 77.4685 30.2796 76.7835 32.5209C75.9776 35.1602 77.9067 37.6181 81.0446 38.2024C84.0717 38.7614 87.0534 38.2225 89.602 36.8223C92.9514 34.9839 95.8777 35.3465 98.9753 37.1094C99.4035 37.3512 100.214 37.2857 100.683 37.0439C102.466 36.1172 104.229 35.1249 105.916 34.037C108.616 32.2943 111.099 30.2746 112.796 27.4842C113.249 26.7388 113.622 25.9833 113.894 25.2227V29.922H119.042V20.9868C119.042 18.1612 120.83 16.6603 122.975 16.6603C125.121 16.6603 126.335 18.0202 126.335 20.4832V29.922H131.482V20.4529C131.482 14.1621 128.586 11.9812 124.441 11.9812L124.426 11.9761ZM87.5823 6.4861C89.053 5.66008 90.6799 5.49387 92.2261 5.95221C94.7344 6.69764 97.1671 7.68484 99.8014 8.62671C99.3682 9.39229 99.1617 9.75997 98.9552 10.1176C97.1117 13.3209 97.1117 13.3411 93.3745 13.4569C91.9088 13.5023 90.433 13.5426 88.9724 13.4469C87.0987 13.326 85.8547 12.3489 85.5625 10.9738C85.1747 9.15053 85.9604 7.39271 87.5873 6.47603L87.5823 6.4861ZM84.7516 21.0221C83.9558 20.9919 83.1097 20.6393 82.4045 20.2313C80.3949 19.0678 80.3394 16.7308 82.3038 15.255C83.2607 17.6727 85.3359 18.0051 87.5571 18.0202C89.8085 18.0353 92.0599 18.0202 94.3869 18.0202C93.9235 18.8311 93.4249 19.773 92.8557 20.6796C92.7298 20.876 92.3823 21.0322 92.1355 21.0372C89.6725 21.0624 87.2045 21.1178 84.7466 21.0221H84.7516ZM82.203 37.1749C81.79 37.1749 81.377 37.059 80.969 36.9633C79.9164 36.7115 79.0299 36.2028 79.04 34.9889C79.0551 33.765 79.8811 33.0095 81.0093 32.9088C82.5355 32.7728 84.1069 32.7123 85.6129 32.9289C87.7837 33.2412 89.9092 33.8305 92.0549 34.2989C88.9271 36.1373 85.7086 37.2101 82.198 37.1698L82.203 37.1749ZM95.6561 30.7782C93.7573 29.9119 91.5713 29.6752 89.3955 29.1262C90.01 28.0231 90.5237 27.0208 91.1231 26.079C91.2893 25.8221 91.7023 25.6156 92.0247 25.5803C94.5581 25.2731 97.0966 24.9558 99.6452 24.7644C101.02 24.6586 102.496 24.6586 103.236 26.1898C103.725 27.2022 103.045 28.3405 101.514 29.6349C99.756 31.1157 98.0586 31.8762 95.6612 30.7833L95.6561 30.7782ZM109.24 28.8693C108.016 30.612 106.188 31.9417 104.591 33.4124C104.39 33.5988 103.881 33.5988 103.584 33.4981C102.567 33.1405 101.579 32.6922 100.481 32.2389C102.164 31.1358 103.735 30.1738 105.221 29.096C105.956 28.5621 106.641 27.8871 107.145 27.1367C108.535 25.0565 107.865 22.5079 105.664 21.3293C103.498 20.1709 101.151 20.1558 98.789 20.3925C97.3334 20.5335 95.8777 20.7048 94.0897 20.9012C94.7797 19.7075 95.3187 18.7505 95.8878 17.8137C95.9785 17.6676 96.2102 17.5367 96.3865 17.5216C99.3128 17.2546 102.249 16.9776 105.14 17.7986C110.389 19.2895 112.373 24.3967 109.235 28.8693H109.24Z" fill="white"/>
<path d="M139.294 12.228H134.147V29.922H139.294V12.228Z" fill="white"/>
<path d="M133.789 7.57915C133.789 11.4373 139.652 11.4373 139.652 7.57915C139.652 3.72101 133.789 3.72101 133.789 7.57915Z" fill="white"/>
<path d="M152.949 11.9056C150.874 11.9056 148.909 12.5503 147.408 14.4089V4.93481H142.226V29.917H146.834L147.157 27.6656C148.799 29.7759 150.803 30.2746 153.019 30.2746C158.202 30.2746 161.743 26.5927 161.743 21.0876C161.743 15.5825 158.132 11.9006 152.949 11.9006V11.9056ZM152.234 25.6307C149.912 25.6307 147.479 24.4521 147.479 21.0926C147.479 18.126 149.871 16.5545 152.234 16.5545C154.878 16.5545 156.56 18.4484 156.56 21.0926C156.56 23.7369 154.989 25.6307 152.234 25.6307Z" fill="white"/>
<path d="M198.259 15.4163C202.51 4.90964 199.025 -5.42572 188.548 7.0301C187.632 6.81353 186.7 6.66746 185.763 6.59191C184.454 6.51132 183.139 6.51132 181.824 6.59191C180.837 6.6725 179.855 6.83367 178.888 7.06536C168.16 -5.67252 164.921 5.32266 169.233 15.6429C168.286 18.0404 167.158 21.7726 167.198 24.981C168.407 32.9541 177.976 37.6433 183.794 37.6534C189.495 37.5779 197.695 33.6341 200.193 26.2956C200.803 22.7245 199.367 18.1915 198.254 15.4213" fill="white"/>
</g>
<defs>
<clipPath id="clip0_1035_11">
<rect width="200.159" height="38.4" fill="white" transform="translate(0.184998 0.019043)"/>
</clipPath>
</defs>
</svg>
