<svg width="25" height="25" viewBox="0 0 25 25" fill="none" xmlns="http://www.w3.org/2000/svg">
<path d="M12.0483 19.4177C11.8723 19.2417 11.7803 19.0177 11.7723 18.7457C11.7643 18.4737 11.8483 18.2497 12.0243 18.0737L16.7283 13.3697H6.00028C5.72829 13.3697 5.50029 13.2777 5.31628 13.0937C5.13228 12.9097 5.04028 12.6817 5.04028 12.4097C5.04028 12.1377 5.13228 11.9097 5.31628 11.7257C5.50029 11.5417 5.72829 11.4497 6.00028 11.4497H16.7283L12.0243 6.7457C11.8483 6.5697 11.7643 6.3457 11.7723 6.0737C11.7803 5.8017 11.8723 5.5777 12.0483 5.4017C12.2243 5.2257 12.4483 5.1377 12.7203 5.1377C12.9923 5.1377 13.2163 5.2257 13.3923 5.4017L19.7283 11.7377C19.8243 11.8177 19.8923 11.9177 19.9323 12.0377C19.9723 12.1577 19.9923 12.2817 19.9923 12.4097C19.9923 12.5377 19.9723 12.6577 19.9323 12.7697C19.8923 12.8817 19.8243 12.9857 19.7283 13.0817L13.3923 19.4177C13.2163 19.5937 12.9923 19.6817 12.7203 19.6817C12.4483 19.6817 12.2243 19.5937 12.0483 19.4177Z" fill="white"/>
</svg>
