<svg width="65" height="65" viewBox="0 0 65 65" fill="none" xmlns="http://www.w3.org/2000/svg">
<rect x="1.00488" y="1.20398" width="63" height="63" rx="31.5" fill="#03050D"/>
<rect x="1.00488" y="1.20398" width="63" height="63" rx="31.5" stroke="#202740"/>
<path d="M56.5049 34.455V31.155L56.3884 31.055C55.9552 30.6811 55.6324 30.3032 55.2911 29.9053C54.9549 29.5104 54.6074 29.1015 54.1464 28.6996C52.8398 27.559 51.6373 26.1904 50.3627 24.3919C48.9664 22.4184 48.0186 20.4479 47.4628 18.3685C47.3762 18.0416 47.14 17.6967 46.8626 17.4898C46.6316 17.3178 46.4078 17.2348 46.1789 17.2348C45.8623 17.2348 45.5539 17.3978 45.2404 17.7377L44.6712 18.3605C44.335 18.7294 43.9998 19.1003 43.6471 19.4562C43.4038 19.7052 43.1428 19.9281 42.885 20.154C42.786 20.5929 42.6633 21.0368 42.5169 21.4857C42.6757 21.9595 42.8345 22.4414 42.9727 22.9623L43.0923 23.4161L43.4605 23.1462C43.9431 22.7913 44.4072 22.4144 44.8444 22.0185V39.4427H40.081C40.0439 38.7988 40.0016 37.0283 39.98 34.0352L39.9748 33.3753L39.4726 33.7702C38.8941 34.2241 38.2485 34.643 37.5565 35.0169L37.3833 35.1099C37.3833 35.1099 37.3864 39.4027 37.3843 39.4407H33.7708V36.3615L33.4129 36.4105C33.0138 36.4645 32.6168 36.5035 32.2156 36.5105C32.0063 36.5105 31.7907 36.4945 31.5731 36.4775L31.2349 36.4495L31.2318 36.8074C31.2225 38.0261 31.207 38.9378 31.1833 39.4407H27.6049V35.3848L27.4182 35.2968C26.6973 34.9509 26.0281 34.565 25.3938 34.1201L24.9133 33.8162V39.4387H20.0756C20.0694 39.2977 20.0643 39.1577 20.0643 39.0168V22.0075L21.4317 23.0692L21.5586 22.6103C21.5967 22.4704 21.6689 22.2744 21.7463 22.0605C21.3719 21.0508 21.1244 20.0541 20.9883 19.1013C20.6944 18.8264 20.4159 18.5535 20.252 18.3515C20.0653 18.1176 19.8652 17.8977 19.6611 17.6817C19.3754 17.3798 19.0526 17.2198 18.7319 17.2198C18.4947 17.2198 18.1441 17.3078 17.813 17.7247C17.6532 17.9257 17.5253 18.1986 17.4511 18.4975C17.2108 19.5002 16.8199 20.5169 16.2249 21.6946C15.3153 23.4961 14.1046 25.2246 12.5206 26.9811C12.1669 27.376 11.8503 27.7569 11.5419 28.1298C10.9675 28.8236 10.4261 29.4794 9.70527 30.1243C9.35464 30.4392 8.99267 30.7451 8.62863 31.042L8.50591 31.143V34.4071L9.0102 34.0262C9.33092 33.7832 9.53305 33.5443 9.72899 33.3124C9.90843 33.1004 10.0776 32.8995 10.3405 32.7015C10.3498 32.6935 10.3612 32.6865 10.3704 32.6785C10.4571 34.655 10.4076 38.4269 10.3055 39.4747H8.50488V42.1329L17.4459 42.1349L17.4418 49.5189C17.4387 49.6688 17.4356 49.8208 17.4542 49.9677C17.549 50.7075 18.109 51.2664 18.8814 51.2664H18.8948C19.5786 51.1924 20.0478 50.6096 20.0602 49.8138C20.0674 49.2649 20.0663 48.7181 20.0643 48.1692L20.0622 42.1759C21.1347 42.1369 24.6441 42.1139 29.5653 42.1139C36.7779 42.1139 43.4821 42.1609 44.8826 42.2169V45.5669C44.8826 45.5669 44.8795 48.5681 44.8857 49.8078C44.8919 50.6195 45.4034 51.2254 46.1314 51.2814L46.1995 51.2844C46.778 51.2844 47.3659 50.7325 47.4814 50.0787C47.5123 49.9107 47.5082 49.7418 47.502 49.4529L47.5061 42.4298C47.5061 42.3319 47.5154 42.2339 47.5278 42.1329H56.5028V39.4736L54.5991 39.4716V33.0124L56.5028 34.4531L56.5049 34.455ZM17.4047 39.4487H13.0393V30.2842C14.9131 28.3358 16.2899 26.6362 17.3913 24.8997C17.4676 28.0428 17.483 37.4732 17.4047 39.4487ZM51.9251 39.4127C51.5249 39.4647 50.7288 39.5086 49.5841 39.5086C48.9045 39.5086 48.1795 39.4926 47.5144 39.4577C47.5092 39.3927 47.5061 39.3267 47.5061 39.2617V24.9747C48.9014 26.9741 50.3534 28.7236 51.9251 30.3002V39.4127Z" fill="white"/>
<path d="M39.95 21.9306C42.1357 16.1095 40.3444 10.3825 34.9593 17.2824C34.4886 17.1634 34.0099 17.0822 33.5282 17.0389C32.8548 16.9935 32.1784 16.9935 31.505 17.0389C30.9962 17.0844 30.4914 17.172 29.9957 17.3029C24.4831 10.244 22.8172 16.3367 25.0351 22.0551C24.5494 23.3827 23.9673 25.4514 23.9894 27.2313C24.6116 31.6491 29.528 34.248 32.5186 34.2523C35.45 34.209 39.664 32.0267 40.9465 27.9584C41.2596 25.9773 40.52 23.466 39.949 21.9306H39.95Z" fill="white"/>
</svg>
