<svg width="25" height="25" viewBox="0 0 25 25" fill="none" xmlns="http://www.w3.org/2000/svg">
<rect x="0.200012" y="0.409912" width="24" height="24" rx="12" fill="#03050D"/>
<path d="M16.4 8.21656C16.14 7.95656 15.72 7.95656 15.46 8.21656L12.2 11.4699L8.93999 8.20989C8.67999 7.94989 8.25999 7.94989 7.99999 8.20989C7.73999 8.46989 7.73999 8.88989 7.99999 9.14989L11.26 12.4099L7.99999 15.6699C7.73999 15.9299 7.73999 16.3499 7.99999 16.6099C8.25999 16.8699 8.67999 16.8699 8.93999 16.6099L12.2 13.3499L15.46 16.6099C15.72 16.8699 16.14 16.8699 16.4 16.6099C16.66 16.3499 16.66 15.9299 16.4 15.6699L13.14 12.4099L16.4 9.14989C16.6533 8.89656 16.6533 8.46989 16.4 8.21656Z" fill="white"/>
</svg>
