<svg width="65" height="65" viewBox="0 0 65 65" fill="none" xmlns="http://www.w3.org/2000/svg">
<rect x="1.29498" y="0.583862" width="63" height="63" rx="31.5" fill="#03050D"/>
<rect x="1.29498" y="0.583862" width="63" height="63" rx="31.5" stroke="#202740"/>
<path d="M42.0165 15.2153C41.9615 16.367 41.6905 17.6986 41.1932 19.0612L40.5053 18.717L40.9958 19.94C41.3243 20.7588 41.6982 21.8314 41.9448 22.9567C42.1894 24.0731 42.3011 25.2076 42.1421 26.1861C41.4309 28.2454 39.919 29.8484 38.1507 30.9488C36.3696 32.0572 34.3661 32.6313 32.7496 32.6541C31.1106 32.6502 28.8906 31.9799 26.9914 30.7188C25.103 29.4649 23.6043 27.6773 23.258 25.4766C23.242 23.6459 23.8911 21.4871 24.4492 20.0719L24.5236 19.8831L24.4454 19.6957C23.8154 18.1879 23.4648 16.6628 23.3871 15.3486C23.3082 14.016 23.5135 12.9739 23.9118 12.3691C24.1037 12.0776 24.3306 11.901 24.5865 11.8192C24.8448 11.7368 25.1866 11.7338 25.6361 11.8883C26.556 12.2046 27.8169 13.1442 29.4147 15.0432L29.6144 15.2805L29.9157 15.207C30.4708 15.0716 31.0343 14.9797 31.6023 14.9331C32.3668 14.8851 33.1344 14.8851 33.9 14.933C34.4395 14.9788 34.9736 15.0629 35.4993 15.1863L35.7985 15.2565L35.9962 15.0213C37.5559 13.1666 38.8 12.2317 39.7175 11.9045C40.167 11.7442 40.5127 11.7385 40.7754 11.8132C41.0345 11.8869 41.2622 12.0527 41.4556 12.3273C41.8581 12.8988 42.0791 13.9025 42.0165 15.2153Z" stroke="white"/>
<path d="M16.2033 26.2628H15.7033V26.7628V43.5236C15.7033 44.2361 15.2317 44.6624 14.8214 44.6624C14.4106 44.6624 13.9395 44.2355 13.9395 43.5236V25.124C13.9395 24.4115 14.4111 23.9852 14.8214 23.9852H18.2511C18.6619 23.9852 19.133 24.4121 19.133 25.124C19.133 25.8356 18.6612 26.2628 18.2511 26.2628H16.2033Z" stroke="white"/>
<path d="M14.5818 43.1417L14.9314 43.4838L15.2811 43.1417L18.6937 39.8029C19.1489 39.3576 19.8903 39.3576 20.3454 39.8029C20.7944 40.2422 20.7944 40.9489 20.3454 41.3882L15.7578 45.8766C15.5317 46.0979 15.2332 46.2108 14.9314 46.2108C14.6294 46.2108 14.3321 46.0987 14.1051 45.8766L9.63193 41.5002C9.18291 41.0609 9.18291 40.3542 9.63193 39.9148C10.0871 39.4696 10.8285 39.4696 11.2836 39.9148L14.5818 43.1417Z" stroke="white"/>
<path d="M49.1949 26.7628V26.2628H48.6949H46.1352C45.4319 26.2628 44.9078 25.7281 44.9078 25.124C44.9078 24.5201 45.4328 23.9852 46.1352 23.9852H50.4223C51.1256 23.9852 51.6497 24.5199 51.6497 25.124V43.5236C51.6497 44.1284 51.1249 44.6624 50.4223 44.6624C49.719 44.6624 49.1949 44.1277 49.1949 43.5236V26.7628Z" stroke="white"/>
<path d="M33.5702 49.3077C33.0383 49.3077 32.5219 48.8123 32.5219 48.0906V39.1377C32.5219 38.4154 33.0389 37.9207 33.5702 37.9207C34.1013 37.9207 34.6186 38.4162 34.6186 39.1377V48.0906C34.6186 48.8129 34.1015 49.3077 33.5702 49.3077Z" stroke="white"/>
<path d="M32.7463 52.4036H32.7062C32.4922 52.3928 32.2715 52.2966 32.0908 52.0945L28.1764 47.7187L27.8053 48.0507L28.1764 47.7187C27.7779 47.2732 27.7779 46.5311 28.1764 46.0856C28.546 45.6725 29.1188 45.6725 29.4884 46.0856L29.861 45.7522L29.4884 46.0856L32.3736 49.311L32.7463 49.7276L33.1189 49.311L36.1052 45.9726C36.4748 45.5595 37.0476 45.5595 37.4172 45.9726C37.8158 46.4182 37.8158 47.1602 37.4172 47.6058L33.4027 52.0935C33.2111 52.3077 32.9726 52.4036 32.7463 52.4036Z" stroke="white"/>
<path d="M51.3701 45.8766C51.153 46.089 50.8563 46.2107 50.5441 46.2108C50.2326 46.2107 49.936 46.0897 49.7182 45.8766L45.2446 41.5002C44.7956 41.0609 44.7956 40.3542 45.2446 39.9149C45.6998 39.4696 46.4413 39.4696 46.8965 39.9148C46.8965 39.9148 46.8965 39.9148 46.8965 39.9149L50.1939 43.1416L50.5435 43.4838L50.8932 43.1417L54.3061 39.8029C54.7613 39.3576 55.5029 39.3576 55.958 39.8029C56.4071 40.2422 56.4071 40.9489 55.958 41.3882L51.3701 45.8766Z" stroke="white"/>
</svg>
