<svg viewBox="0 0 128 128" fill="none" xmlns="http://www.w3.org/2000/svg">
<mask id="mask0_572_1330" style="mask-type:luminance" maskUnits="userSpaceOnUse" x="0" y="0">
<path d="M128 0H0V128H128V0Z" fill="white"/>
</mask>
<g mask="url(#mask0_572_1330)">
<path d="M114.379 77.3997C109.9 75.8821 94.2052 71.8474 83.4337 84.2846C81.1757 75.3268 72.9952 69.1452 63.7784 69.4413H63.7413C54.5245 69.1452 46.307 75.3268 44.049 84.2846C33.4256 72.0324 18.0641 75.771 13.3261 77.3257H13.2891C13.5112 81.3604 14.9178 85.247 17.2497 88.5414C30.9825 107.641 50.3787 114.637 63.5563 114.822C63.5933 114.822 63.6673 114.822 63.7413 114.822H63.8524C63.9634 114.822 64.0375 114.822 64.1485 114.822C77.3261 114.637 96.7223 107.641 110.455 88.5414C112.787 85.247 114.157 81.3974 114.379 77.3997Z" fill="white"/>
</g>
<mask id="mask1_572_1330" style="mask-type:luminance" maskUnits="userSpaceOnUse" x="0" y="0">
<path d="M128 0H0V128H128V0Z" fill="white"/>
</mask>
<g mask="url(#mask1_572_1330)">
<path d="M63.9629 0C99.3128 0 127.963 28.6501 127.963 64C127.963 99.3499 99.3128 128 63.9629 128C28.613 128 -0.0371094 99.3499 -0.0371094 64C-0.0371094 28.6501 28.65 0 63.9629 0Z" fill="#CF1324"/>
</g>
<mask id="mask2_572_1330" style="mask-type:luminance" maskUnits="userSpaceOnUse" x="0" y="0">
<path d="M128 0H0V128H128V0Z" fill="white"/>
</mask>
<g mask="url(#mask2_572_1330)">
<path d="M26.3921 33.277C29.7235 29.4644 33.7582 26.318 38.2371 24.0231C29.8345 14.2139 23.0607 9.36489 20.0994 8.21741C17.5083 16.1017 20.5066 28.539 23.3198 37.1636C24.2822 35.794 25.3186 34.4985 26.3921 33.277Z" fill="#EA5D0C"/>
</g>
<mask id="mask3_572_1330" style="mask-type:luminance" maskUnits="userSpaceOnUse" x="0" y="0">
<path d="M128 0H0V128H128V0Z" fill="white"/>
</mask>
<g mask="url(#mask3_572_1330)">
<path d="M101.312 33.277C102.237 34.3134 103.088 35.4239 103.94 36.5714C106.679 27.9467 109.492 15.9167 106.975 8.21741C104.051 9.36489 97.351 14.1399 89.0225 23.801C93.6864 26.096 97.8692 29.3163 101.312 33.277Z" fill="#EA5D0C"/>
</g>
<mask id="mask4_572_1330" style="mask-type:luminance" maskUnits="userSpaceOnUse" x="0" y="0">
<path d="M128 0H0V128H128V0Z" fill="white"/>
</mask>
<g mask="url(#mask4_572_1330)">
<path d="M101.311 33.277C97.8688 29.3534 93.6861 26.133 89.0221 23.801C97.3506 14.14 104.05 9.32793 106.975 8.21746C109.492 15.9167 106.679 27.9838 103.939 36.5714C103.088 35.3869 102.237 34.3135 101.311 33.277ZM26.3917 33.277C25.3182 34.5356 24.2818 35.8311 23.3564 37.1637C20.5432 28.539 17.5449 16.1018 20.136 8.21746C23.0973 9.36495 29.8711 14.214 38.2737 24.0231C33.7578 26.3181 29.7231 29.4274 26.3917 33.277ZM114.23 72.5136C112.638 61.8901 110.232 52.6362 106.53 45.048C109.603 37.7559 111.713 30.0937 112.786 22.2464C113.526 15.9907 113.267 9.58704 110.861 4.29381C110.306 3.10931 109.011 2.48005 107.752 2.73915C105.605 3.14633 101.867 4.5159 96.7213 8.62464C91.4651 12.9925 86.7271 17.9526 82.5814 23.3939C76.6219 21.5431 70.4403 20.6177 64.1846 20.6917C64.0736 20.6917 63.9995 20.6917 63.8885 20.6917C63.7775 20.6917 63.7034 20.6917 63.5924 20.6917C57.1887 20.6177 50.822 21.6171 44.7144 23.5789C40.5316 18.0636 35.7196 13.0295 30.3894 8.62464C25.2442 4.55292 21.5426 3.18334 19.3957 2.77617C18.1002 2.51706 16.8417 3.14632 16.2864 4.33082C13.8804 9.58704 13.6213 15.9537 14.3246 22.1724C15.4351 30.2788 17.656 38.2001 20.8764 45.7143C17.3599 53.1914 15.0279 62.1862 13.5102 72.5136C13.2882 74.1053 13.2141 75.6969 13.3622 77.3256C18.1002 75.771 33.4617 72.0324 44.0851 84.2846C46.3431 75.3268 54.5235 69.1452 63.7774 69.4413C67.0718 69.3673 70.3292 70.1076 73.2905 71.5142C78.3246 74.1793 81.9891 78.8062 83.4327 84.2846C94.2043 71.8103 109.899 75.882 114.378 77.3996C114.526 75.771 114.452 74.1423 114.23 72.5136Z" fill="#F28F3C"/>
</g>
<mask id="mask5_572_1330" style="mask-type:luminance" maskUnits="userSpaceOnUse" x="0" y="0">
<path d="M128 0H0V128H128V0Z" fill="white"/>
</mask>
<g mask="url(#mask5_572_1330)">
<path d="M77.9915 96.0555C77.4732 97.0919 77.1771 98.2024 77.1771 99.3499C77.1401 99.683 76.844 99.9421 76.4738 99.9421H75.7335L74.0678 104.384C74.0308 104.495 73.9197 104.606 73.7717 104.606C73.6977 104.606 73.6236 104.569 73.5496 104.532C73.2164 104.162 72.9203 103.755 72.6612 103.311C72.5872 103.237 72.5872 103.125 72.5872 103.014V97.9433C69.7 98.3504 66.8127 98.5355 63.9255 98.5355H63.7404C60.8532 98.5355 57.966 98.3134 55.1158 97.9063V102.977C55.1158 103.088 55.0788 103.199 55.0418 103.274C54.7827 103.718 54.4865 104.125 54.1534 104.495C54.0424 104.606 53.8203 104.606 53.7092 104.495C53.6722 104.458 53.6352 104.421 53.6352 104.384L51.9695 99.9421H51.2292C50.859 99.9421 50.5629 99.683 50.5259 99.3499C50.4889 98.2024 50.1927 97.0919 49.7115 96.0555C49.6005 95.8334 49.7115 95.5743 49.9336 95.5002C49.9706 95.4632 50.0447 95.4632 50.0817 95.4632C51.4513 95.4262 54.4125 95.3892 55.0048 95.4262H60.224C60.7052 94.6119 61.4825 94.0196 62.3709 93.6865V90.207C56.1893 89.4297 55.4119 83.7663 55.523 80.4349C55.56 79.0653 56.7075 77.9548 58.0771 77.9548H69.6629C71.0325 77.9548 72.18 79.0653 72.217 80.4349C72.3281 83.8033 71.5508 89.4297 65.3691 90.207V93.6865C66.2575 93.9826 66.9978 94.6119 67.516 95.4262H72.7353C73.3275 95.3892 76.2887 95.4632 77.6583 95.4632C77.8804 95.4632 78.0655 95.6853 78.0655 95.9074C78.0285 95.9444 78.0285 96.0185 77.9915 96.0555Z" fill="#22263F"/>
</g>
<mask id="mask6_572_1330" style="mask-type:luminance" maskUnits="userSpaceOnUse" x="0" y="0">
<path d="M128 0H0V128H128V0Z" fill="white"/>
</mask>
<g mask="url(#mask6_572_1330)">
<path d="M77.9915 96.0556C77.4732 97.092 77.1771 98.2025 77.1771 99.35C77.1401 99.6831 76.844 99.9422 76.4738 99.9422H75.7335L74.0678 104.384C74.0308 104.495 73.9198 104.606 73.7717 104.606C73.6977 104.606 73.6236 104.569 73.5496 104.532C73.2165 104.162 72.9203 103.755 72.6612 103.311C72.5872 103.237 72.5872 103.126 72.5872 103.015V97.9434C69.7 98.3505 66.8128 98.5356 63.8885 98.5356H63.7034C60.8162 98.5356 57.929 98.3135 55.0788 97.9434V103.015C55.0788 103.126 55.0418 103.237 55.0048 103.311C54.7457 103.755 54.4495 104.162 54.1164 104.532C54.0053 104.643 53.7833 104.643 53.6722 104.532C53.6352 104.495 53.6352 104.458 53.5982 104.421L51.9325 99.9792H51.1922C50.822 99.9792 50.5259 99.7201 50.4889 99.387C50.4519 98.2395 50.1557 97.129 49.6745 96.0926C49.5635 95.8705 49.6745 95.6114 49.8966 95.5374C49.9336 95.5003 50.0077 95.5004 50.0447 95.5004C51.4143 95.4633 54.3755 95.4263 54.9678 95.4633H60.187C60.6682 94.649 61.4455 94.0567 62.3339 93.7236V90.2441C56.1523 89.4668 55.3749 83.8034 55.486 80.472C55.523 79.1024 56.6705 77.992 58.0401 77.992H69.6259C70.9955 77.992 72.143 79.1024 72.18 80.472C72.2911 83.8404 71.5137 89.4668 65.3321 90.2441V93.7236C66.2205 94.0197 66.9978 94.649 67.479 95.4633H72.6982C73.2905 95.4263 76.2517 95.5004 77.6213 95.5004C77.8434 95.5004 78.0285 95.7224 78.0285 95.9445C78.0285 95.9445 78.0285 96.0186 77.9915 96.0556ZM69.9961 101.386C69.9961 102.126 69.5149 102.792 68.8116 103.015C68.7006 103.052 68.5525 103.052 68.4414 103.052C67.5531 103.052 67.442 101.867 66.4796 101.867C65.5172 101.867 65.2581 104.754 63.8515 104.865H63.8145H63.7775C63.7405 104.865 63.7405 104.865 63.7034 104.865C62.3709 104.68 62.1118 101.904 61.1864 101.904C60.224 101.904 60.1129 103.089 59.2246 103.089C59.1135 103.089 58.9654 103.089 58.8544 103.052C58.1511 102.829 57.6699 102.163 57.6699 101.423V100.571H69.9961V101.386ZM114.378 77.3997C109.899 75.8821 94.2043 71.8474 83.4328 84.2846C81.9892 78.7693 78.3246 74.1423 73.2905 71.5142C70.3292 70.1076 67.0719 69.4043 63.7775 69.4413C54.5606 69.1452 46.3431 75.3268 44.0852 84.2846C33.4617 72.0324 18.1002 75.771 13.3622 77.3257C13.3622 77.3257 13.3622 77.3257 13.3252 77.3257C13.5473 81.3604 14.9539 85.247 17.2859 88.5414C31.0187 107.641 50.4148 114.637 63.5924 114.822H63.7775V114.489V114.785C63.8145 114.785 63.8515 114.785 63.8885 114.785C63.9626 114.785 64.0736 114.785 64.1846 114.785C68.3674 114.674 72.5132 114.045 76.5108 112.898C90.2807 108.863 102.274 100.275 110.491 88.5044C112.786 85.247 114.156 81.3974 114.378 77.3997Z" fill="white"/>
</g>
<mask id="mask7_572_1330" style="mask-type:luminance" maskUnits="userSpaceOnUse" x="0" y="0">
<path d="M128 0H0V128H128V0Z" fill="white"/>
</mask>
<g mask="url(#mask7_572_1330)">
<path d="M69.9961 100.534V101.386C69.9961 102.126 69.5149 102.792 68.8116 103.014C68.7006 103.051 68.5525 103.051 68.4415 103.051C67.5531 103.051 67.4421 101.867 66.4796 101.867C65.5172 101.867 65.2581 104.754 63.8515 104.865H63.8145H63.7775C63.7405 104.865 63.7405 104.865 63.7035 104.865C62.3709 104.68 62.1118 101.904 61.1864 101.904C60.224 101.904 60.113 103.089 59.2246 103.089C59.1135 103.089 58.9655 103.089 58.8544 103.051C58.1511 102.829 57.6699 102.163 57.6699 101.423V100.571H69.9961V100.534Z" fill="#22263F"/>
</g>
<mask id="mask8_572_1330" style="mask-type:luminance" maskUnits="userSpaceOnUse" x="0" y="0">
<path d="M128 0H0V128H128V0Z" fill="white"/>
</mask>
<g mask="url(#mask8_572_1330)">
<path d="M93.8713 58.9659L93.3161 54.524C93.3161 53.7837 92.7238 53.1544 91.9465 53.1544C91.7984 53.1544 91.6133 53.1914 91.4653 53.2285C86.6533 55.0422 73.1425 61.2238 74.6602 65.2585C76.0298 68.0347 87.1345 65.0364 92.6498 61.2608C93.4641 60.8167 93.9453 59.8913 93.8713 58.9659Z" fill="#22263F"/>
</g>
<mask id="mask9_572_1330" style="mask-type:luminance" maskUnits="userSpaceOnUse" x="0" y="0">
<path d="M128 0H0V128H128V0Z" fill="white"/>
</mask>
<g mask="url(#mask9_572_1330)">
<path d="M34.0547 58.9659L34.6099 54.524C34.6099 53.7837 35.2022 53.1544 35.9795 53.1544C36.1276 53.1544 36.3126 53.1914 36.4607 53.2285C41.2727 55.0422 54.7834 61.2238 53.2658 65.2585C51.8962 68.0347 40.7915 65.0364 35.2762 61.2608C34.5359 60.7426 34.0547 59.8913 34.0547 58.9659Z" fill="#22263F"/>
</g>
<mask id="mask10_572_1330" style="mask-type:luminance" maskUnits="userSpaceOnUse" x="0" y="0">
<path d="M128 0H0V128H128V0Z" fill="white"/>
</mask>
<g mask="url(#mask10_572_1330)">
<path d="M52.2658 51.8219C49.5636 51.5998 43.9002 51.0446 42.1235 49.9341C39.7545 48.4535 40.7539 41.6796 49.2305 42.642C55.7082 43.3453 56.4855 47.7872 55.301 50.3043C54.6718 51.3777 53.4873 51.97 52.2658 51.8219Z" fill="white"/>
</g>
<mask id="mask11_572_1330" style="mask-type:luminance" maskUnits="userSpaceOnUse" x="0" y="0">
<path d="M128 0H0V128H128V0Z" fill="white"/>
</mask>
<g mask="url(#mask11_572_1330)">
<path d="M75.6969 51.8219C78.399 51.5998 84.0624 51.0446 85.8391 49.9341C88.2081 48.4535 87.2087 41.6796 78.7321 42.642C72.2544 43.3453 71.4771 47.7872 72.6616 50.3043C73.2908 51.3777 74.4753 51.97 75.6969 51.8219Z" fill="white"/>
</g>
</svg>
