<svg xmlns="http://www.w3.org/2000/svg" width="205" height="60" viewBox="0 0 205 60" fill="none">
  <mask id="mask0_552_91639" style="mask-type:luminance" maskUnits="userSpaceOnUse" x="0" y="0" width="205" height="60">
    <path d="M204.088 0H0.0126953V60H204.088V0Z" fill="white"/>
  </mask>
  <g mask="url(#mask0_552_91639)">
    <path d="M53.6379 36.2625C51.5379 35.55 44.1879 33.6375 39.1254 39.4875C38.0754 35.2875 34.2504 32.4 29.9004 32.5125C25.5879 32.3625 21.7254 35.2875 20.6754 39.4875C15.6879 33.75 8.48789 35.5125 6.27539 36.225C6.38789 38.1 7.02539 39.9375 8.15039 41.475C14.5629 50.4375 23.6754 53.7 29.8629 53.775C29.9004 53.775 29.9004 53.775 29.9379 53.775H29.9754C30.0129 53.775 30.0504 53.775 30.1254 53.775C36.3129 53.7 45.3879 50.4 51.8379 41.475C52.8879 39.9375 53.5254 38.1375 53.6379 36.2625Z" fill="white"/>
  </g>
  <mask id="mask1_552_91639" style="mask-type:luminance" maskUnits="userSpaceOnUse" x="0" y="0" width="205" height="60">
    <path d="M204.088 0H0.0126953V60H204.088V0Z" fill="white"/>
  </mask>
  <g mask="url(#mask1_552_91639)">
    <path d="M30.0127 0C46.5877 0 60.0127 13.425 60.0127 30C60.0127 46.575 46.5877 60 30.0127 60C13.4377 60 0.0126953 46.575 0.0126953 30C0.0126953 13.425 13.4377 0 30.0127 0Z" fill="#CF1324"/>
  </g>
  <mask id="mask2_552_91639" style="mask-type:luminance" maskUnits="userSpaceOnUse" x="0" y="0" width="205" height="60">
    <path d="M204.088 0H0.0126953V60H204.088V0Z" fill="white"/>
  </mask>
  <g mask="url(#mask2_552_91639)">
    <path d="M12.3878 15.5625C13.9628 13.7625 15.8378 12.3 17.9378 11.2125C14.0003 6.59998 10.8128 4.34998 9.42532 3.78748C8.22532 7.49997 9.61282 13.3125 10.9253 17.3625C11.4128 16.7625 11.9003 16.125 12.3878 15.5625Z" fill="#EA5D0C"/>
  </g>
  <mask id="mask3_552_91639" style="mask-type:luminance" maskUnits="userSpaceOnUse" x="0" y="0" width="205" height="60">
    <path d="M204.088 0H0.0126953V60H204.088V0Z" fill="white"/>
  </mask>
  <g mask="url(#mask3_552_91639)">
    <path d="M47.5256 15.5625C47.9381 16.05 48.3506 16.5749 48.7631 17.0999C50.0381 13.0499 51.3506 7.42495 50.1881 3.82495C48.8006 4.34995 45.6881 6.59995 41.7881 11.1375C43.9631 12.2249 45.9131 13.725 47.5256 15.5625Z" fill="#EA5D0C"/>
  </g>
  <mask id="mask4_552_91639" style="mask-type:luminance" maskUnits="userSpaceOnUse" x="0" y="0" width="205" height="60">
    <path d="M204.088 0H0.0126953V60H204.088V0Z" fill="white"/>
  </mask>
  <g mask="url(#mask4_552_91639)">
    <path d="M47.5257 15.5625C45.9132 13.725 43.9632 12.225 41.7507 11.1375C45.6507 6.59999 48.8007 4.34999 50.1507 3.82499C51.3507 7.42499 50.0007 13.0875 48.7257 17.1C48.3507 16.575 47.9382 16.05 47.5257 15.5625ZM12.3882 15.5625C11.8632 16.1625 11.4132 16.7625 10.9632 17.4C9.65074 13.35 8.22574 7.53749 9.46324 3.82499C10.8507 4.34999 14.0382 6.63749 17.9757 11.25C15.8382 12.3 13.9632 13.7625 12.3882 15.5625ZM53.5632 33.975C52.8132 28.9875 51.6882 24.675 49.9632 21.1125C51.3882 17.7 52.4007 14.1 52.8882 10.425C53.2257 7.49999 53.1132 4.49999 51.9882 2.02499C51.7257 1.46249 51.1257 1.16249 50.5257 1.27499C49.5132 1.46249 47.7882 2.09999 45.3507 4.04999C42.8757 6.11249 40.6632 8.43749 38.7132 10.9875C35.9382 10.125 33.0132 9.67499 30.0882 9.71249C30.0507 9.71249 30.0132 9.71249 29.9382 9.71249C29.9007 9.71249 29.8632 9.71249 29.7882 9.71249C26.7882 9.67499 23.7882 10.125 20.9382 11.0625C18.9882 8.47499 16.7382 6.11249 14.2257 4.04999C11.8257 2.13749 10.0632 1.49999 9.05074 1.31249C8.45074 1.19999 7.85074 1.49999 7.58824 2.06249C6.46324 4.49999 6.35074 7.49999 6.68824 10.425C7.21324 14.2125 8.26324 17.925 9.76324 21.45C8.11324 24.975 7.02574 29.175 6.31324 34.0125C6.20074 34.7625 6.16324 35.5125 6.23824 36.2625C8.45074 35.55 15.6507 33.7875 20.6382 39.525C21.6882 35.325 25.5507 32.4375 29.8632 32.55C31.4007 32.5125 32.9382 32.85 34.3257 33.525C36.6882 34.7625 38.4132 36.9375 39.0882 39.525C44.1507 33.675 51.5007 35.5875 53.6007 36.3C53.7132 35.475 53.6757 34.725 53.5632 33.975Z" fill="#F28F3C"/>
  </g>
  <mask id="mask5_552_91639" style="mask-type:luminance" maskUnits="userSpaceOnUse" x="0" y="0" width="205" height="60">
    <path d="M204.088 0H0.0126953V60H204.088V0Z" fill="white"/>
  </mask>
  <g mask="url(#mask5_552_91639)">
    <path d="M36.5752 45C36.3502 45.4875 36.2002 46.0124 36.2002 46.5374C36.1627 46.6874 36.0502 46.8375 35.8627 46.8H35.5252L34.7377 48.9C34.7002 48.975 34.6627 49.0124 34.5877 49.0124C34.5502 49.0124 34.5127 49.0124 34.4752 48.9749C34.3252 48.7874 34.1752 48.5999 34.0627 48.4124C34.0252 48.3749 34.0252 48.3374 34.0252 48.2624V45.8625C32.6752 46.05 31.3252 46.125 29.9752 46.125H29.9002C28.5502 46.125 27.2002 46.0124 25.8502 45.8249V48.1875C25.8502 48.225 25.8502 48.3 25.8127 48.3375C25.7002 48.525 25.5502 48.7125 25.4002 48.9C25.3252 48.975 25.2502 48.9375 25.1752 48.9L25.1377 48.8625L24.3502 46.7624H24.0127C23.8627 46.7624 23.7127 46.65 23.6752 46.5C23.6752 45.975 23.5252 45.45 23.3002 44.9625C23.2627 44.85 23.3002 44.7374 23.4127 44.7C23.4502 44.7 23.4502 44.7 23.4877 44.7C24.1252 44.7 25.5127 44.6624 25.7752 44.6624H28.2127C28.4377 44.2874 28.8127 43.9875 29.2252 43.8375V42.1875C26.3377 41.8125 25.9627 39.1875 26.0002 37.6125C26.0377 36.975 26.5627 36.45 27.2002 36.45H32.6377C33.2752 36.45 33.8002 36.975 33.8377 37.6125C33.8752 39.1875 33.5377 41.8125 30.6127 42.1875V43.8375C31.0252 43.9875 31.4002 44.2874 31.6252 44.6624H34.0627C34.3627 44.6624 35.7127 44.6624 36.3502 44.7C36.4627 44.7 36.5377 44.8125 36.5377 44.925C36.6127 44.9625 36.5752 44.9625 36.5752 45Z" fill="#22263F"/>
  </g>
  <mask id="mask6_552_91639" style="mask-type:luminance" maskUnits="userSpaceOnUse" x="0" y="0" width="205" height="60">
    <path d="M204.088 0H0.0126953V60H204.088V0Z" fill="white"/>
  </mask>
  <g mask="url(#mask6_552_91639)">
    <path d="M36.5754 45C36.3504 45.4875 36.2004 46.0125 36.2004 46.5375C36.1629 46.6875 36.0504 46.8375 35.8629 46.8H35.5254L34.7379 48.9C34.7004 48.975 34.6629 49.0125 34.5879 49.0125C34.5504 49.0125 34.5129 49.0125 34.4754 48.975C34.3254 48.7875 34.1754 48.6 34.0629 48.4125C34.0254 48.375 34.0254 48.3375 34.0254 48.2625V45.8625C32.6754 46.05 31.3254 46.125 29.9754 46.125H29.9004C28.5504 46.125 27.2004 46.0125 25.8504 45.825V48.1875C25.8504 48.225 25.8504 48.3 25.8129 48.3375C25.7004 48.525 25.5504 48.7125 25.4004 48.9C25.3254 48.975 25.2504 48.975 25.2129 48.9L25.1754 48.8625L24.3879 46.7625H24.0504C23.9004 46.7625 23.7504 46.65 23.7129 46.5C23.7129 45.975 23.5629 45.45 23.3379 44.9625C23.3004 44.85 23.3379 44.7375 23.4504 44.7C23.4879 44.7 23.4879 44.7 23.5254 44.7C24.1629 44.7 25.5504 44.6625 25.8129 44.6625H28.2504C28.4754 44.2875 28.8504 43.9875 29.2629 43.8375V42.1875C26.3754 41.8125 26.0004 39.1875 26.0379 37.6125C26.0754 36.975 26.6004 36.45 27.2379 36.45H32.6754C33.3129 36.45 33.8379 36.975 33.8754 37.6125C33.9129 39.1875 33.5754 41.8125 30.6504 42.1875V43.8375C31.0629 43.9875 31.4379 44.2875 31.6629 44.6625H34.1004C34.4004 44.6625 35.7504 44.6625 36.3879 44.7C36.5004 44.7 36.5754 44.8125 36.5754 44.925C36.6129 44.9625 36.5754 44.9625 36.5754 45ZM32.8254 47.475C32.8254 47.8125 32.6004 48.15 32.2629 48.225C32.2254 48.225 32.1504 48.2625 32.0754 48.2625C31.6629 48.2625 31.6254 47.7 31.1379 47.7C30.6504 47.7 30.5754 49.05 29.9004 49.0875C29.9004 49.0875 29.9004 49.0875 29.8629 49.0875C29.2254 49.0125 29.1129 47.7 28.6629 47.7C28.2129 47.7 28.1754 48.2625 27.7254 48.2625C27.6504 48.2625 27.6129 48.2625 27.5379 48.225C27.2004 48.1125 26.9754 47.8125 26.9754 47.475V47.0625H32.7504L32.8254 47.475ZM53.6379 36.2625C51.5379 35.55 44.1879 33.6375 39.1254 39.4875C38.4504 36.9 36.7254 34.725 34.3629 33.4875C32.9754 32.8125 31.4379 32.475 29.9004 32.5125C25.5879 32.3625 21.7254 35.2875 20.6754 39.4875C15.6879 33.75 8.48789 35.5125 6.27539 36.225C6.38789 38.1 7.02539 39.9375 8.15039 41.475C14.5629 50.4375 23.6754 53.7 29.8629 53.775H29.9379H29.9754C30.0129 53.775 30.0504 53.775 30.1254 53.775C32.0754 53.7375 34.0254 53.4375 35.9004 52.875C42.3504 51 47.9754 46.95 51.8379 41.4375C52.8879 39.9375 53.5254 38.1375 53.6379 36.2625Z" fill="white"/>
  </g>
  <mask id="mask7_552_91639" style="mask-type:luminance" maskUnits="userSpaceOnUse" x="0" y="0" width="205" height="60">
    <path d="M204.088 0H0.0126953V60H204.088V0Z" fill="white"/>
  </mask>
  <g mask="url(#mask7_552_91639)">
    <path d="M32.8256 47.1V47.5125C32.8256 47.85 32.6006 48.1875 32.2631 48.2625C32.2256 48.2625 32.1506 48.3 32.0756 48.3C31.6631 48.3 31.5881 47.7375 31.1381 47.7375C30.6881 47.7375 30.5756 49.0875 29.9006 49.125H29.8631C29.2256 49.05 29.1131 47.7375 28.6631 47.7375C28.2131 47.7375 28.1756 48.3 27.7256 48.3C27.6506 48.3 27.6131 48.3 27.5381 48.2625C27.2006 48.15 26.9756 47.85 26.9756 47.5125V47.1H32.8256Z" fill="#22263F"/>
  </g>
  <mask id="mask8_552_91639" style="mask-type:luminance" maskUnits="userSpaceOnUse" x="0" y="0" width="205" height="60">
    <path d="M204.088 0H0.0126953V60H204.088V0Z" fill="white"/>
  </mask>
  <g mask="url(#mask8_552_91639)">
    <path d="M44.038 27.6L43.7755 25.5001C43.7755 25.1626 43.4755 24.8625 43.138 24.8625C43.063 24.8625 42.988 24.8626 42.913 24.9001C40.663 25.7626 34.3255 28.6501 35.038 30.5251C35.6755 31.8001 40.888 30.4125 43.4755 28.6501C43.8505 28.4626 44.0755 28.05 44.038 27.6Z" fill="#22263F"/>
  </g>
  <mask id="mask9_552_91639" style="mask-type:luminance" maskUnits="userSpaceOnUse" x="0" y="0" width="205" height="60">
    <path d="M204.088 0H0.0126953V60H204.088V0Z" fill="white"/>
  </mask>
  <g mask="url(#mask9_552_91639)">
    <path d="M15.9873 27.6L16.2498 25.5001C16.2498 25.1626 16.5498 24.8625 16.8873 24.8625C16.9623 24.8625 17.0373 24.8626 17.1123 24.9001C19.3623 25.7626 25.6998 28.6501 24.9873 30.5251C24.3498 31.8001 19.1373 30.4125 16.5498 28.6501C16.2123 28.4626 15.9873 28.05 15.9873 27.6Z" fill="#22263F"/>
  </g>
  <mask id="mask10_552_91639" style="mask-type:luminance" maskUnits="userSpaceOnUse" x="0" y="0" width="205" height="60">
    <path d="M204.088 0H0.0126953V60H204.088V0Z" fill="white"/>
  </mask>
  <g mask="url(#mask10_552_91639)">
    <path d="M24.5382 24.2626C23.2632 24.1501 20.6007 23.8876 19.7757 23.3626C18.6882 22.6876 19.1382 19.5001 23.1132 19.9501C26.1507 20.2876 26.5257 22.3501 25.9632 23.5501C25.6632 24.0376 25.1007 24.3376 24.5382 24.2626Z" fill="white"/>
  </g>
  <mask id="mask11_552_91639" style="mask-type:luminance" maskUnits="userSpaceOnUse" x="0" y="0" width="205" height="60">
    <path d="M204.088 0H0.0126953V60H204.088V0Z" fill="white"/>
  </mask>
  <g mask="url(#mask11_552_91639)">
    <path d="M35.488 24.2626C36.763 24.1501 39.4255 23.8876 40.2505 23.3626C41.338 22.6876 40.888 19.5001 36.913 19.9501C33.8755 20.2876 33.5005 22.3501 34.063 23.5501C34.363 24.0376 34.9255 24.3376 35.488 24.2626Z" fill="white"/>
  </g>
  <path d="M178.587 24.0375H172.175V44.475H178.587V24.0375Z" fill="white"/>
  <mask id="mask12_552_91639" style="mask-type:luminance" maskUnits="userSpaceOnUse" x="0" y="0" width="205" height="60">
    <path d="M204.088 0H0.0126953V60H204.088V0Z" fill="white"/>
  </mask>
  <g mask="url(#mask12_552_91639)">
    <path d="M175.4 21.975C172.775 21.975 171.088 19.9875 171.688 17.55C171.688 17.475 171.725 17.4 171.763 17.325C172.363 15.4125 174.575 14.4 176.713 15.075C178.588 15.6375 179.638 17.5875 179.075 19.425C179.075 19.4625 179.038 19.5 179.038 19.5375C178.588 21.0375 177.163 21.975 175.4 21.975Z" fill="white"/>
  </g>
  <mask id="mask13_552_91639" style="mask-type:luminance" maskUnits="userSpaceOnUse" x="0" y="0" width="205" height="60">
    <path d="M204.088 0H0.0126953V60H204.088V0Z" fill="white"/>
  </mask>
  <g mask="url(#mask13_552_91639)">
    <path d="M72.7256 41.0624L76.0256 36.4499C77.3006 37.1624 78.6131 37.7999 79.9631 38.3999C82.3631 39.3749 85.0256 39.5249 87.5381 38.9249C88.2131 38.7374 88.8506 38.4374 89.4131 38.0249C90.4256 37.2749 90.6881 35.8499 89.9381 34.7999C89.7506 34.5374 89.4881 34.3124 89.1881 34.1249C87.9881 33.3749 86.6381 33.2249 85.2506 32.9624C83.3006 32.6249 81.3506 32.2499 79.4381 31.8374C78.9506 31.6874 78.4631 31.4999 78.0131 31.2749C72.2006 28.8749 72.4256 21.5249 76.1756 18.4124C78.0131 16.9124 80.2256 16.0124 82.5881 15.7499C86.9006 15.1499 91.3256 16.0499 95.0756 18.2999C95.2631 18.4124 95.4506 18.5624 95.6381 18.6749C95.6756 18.7124 95.7506 18.7874 95.7881 18.8249L92.7131 23.3999C92.5256 23.2874 92.3756 23.2124 92.2256 23.0999C89.4881 21.3374 86.1506 20.7374 82.9631 21.4124C82.3256 21.5624 81.6881 21.8249 81.1256 22.1624C79.4756 23.2499 79.5881 25.2749 81.3131 26.1749C82.5881 26.7749 83.9381 27.1124 85.3256 27.1874C87.6131 27.4124 89.8631 27.9374 91.9631 28.8374C94.3631 29.9249 96.1631 31.5749 96.7256 34.3124C97.5131 37.7624 95.9381 41.3624 92.8256 43.1249C90.9506 44.2499 88.8131 44.8874 86.6381 44.9999C81.9131 45.3374 77.4881 44.3624 73.5506 41.6999C73.3256 41.5499 73.1381 41.3999 72.9131 41.2124C72.8006 41.1749 72.7631 41.0999 72.7256 41.0624Z" fill="white"/>
  </g>
  <mask id="mask14_552_91639" style="mask-type:luminance" maskUnits="userSpaceOnUse" x="0" y="0" width="205" height="60">
    <path d="M204.088 0H0.0126953V60H204.088V0Z" fill="white"/>
  </mask>
  <g mask="url(#mask14_552_91639)">
    <path d="M142.812 34.5001C142.812 36.7876 143.975 38.5875 145.887 39.225C149.262 40.3875 152.412 38.025 152.3 34.3875C152.225 30.9375 149.45 28.7626 146.187 29.6251C144.087 30.1876 142.812 32.0626 142.812 34.5001ZM142.4 42.1125C142.25 42.9375 142.137 43.6501 141.987 44.4376H136.55V16.2375H142.812V26.4001C142.962 26.3251 143.037 26.2876 143.075 26.2501C149.037 21.6376 157.212 24.9 158.412 32.3625C158.9 35.025 158.487 37.7626 157.25 40.1251C154.7 44.6251 149 46.2376 144.5 43.6876C143.825 43.3126 143.225 42.8625 142.662 42.3375C142.587 42.2625 142.512 42.225 142.4 42.1125Z" fill="white"/>
  </g>
  <mask id="mask15_552_91639" style="mask-type:luminance" maskUnits="userSpaceOnUse" x="0" y="0" width="205" height="60">
    <path d="M204.088 0H0.0126953V60H204.088V0Z" fill="white"/>
  </mask>
  <g mask="url(#mask15_552_91639)">
    <path d="M106.776 44.4375H100.476V16.2375H106.738V26.5875C106.813 26.55 106.888 26.5125 106.963 26.475C109.476 24 112.438 23.5125 115.701 24.5251C118.551 25.425 120.013 27.6375 120.613 30.4875C120.801 31.3125 120.876 32.1376 120.876 33.0001C120.913 36.6751 120.876 40.3125 120.876 43.9875C120.876 44.1375 120.876 44.25 120.838 44.4375H114.538V43.8C114.538 40.5 114.538 37.1625 114.538 33.8625C114.538 33.3375 114.501 32.8125 114.388 32.2875C114.088 30.8625 113.263 29.85 111.763 29.5875C110.038 29.2875 108.576 29.7375 107.526 31.2C106.963 32.0625 106.701 33.1126 106.738 34.1251V43.7625V44.4375" fill="white"/>
  </g>
  <path d="M131.676 24.5249H125.413V44.3999H131.676V24.5249Z" fill="white"/>
  <mask id="mask16_552_91639" style="mask-type:luminance" maskUnits="userSpaceOnUse" x="0" y="0" width="205" height="60">
    <path d="M204.088 0H0.0126953V60H204.088V0Z" fill="white"/>
  </mask>
  <g mask="url(#mask16_552_91639)">
    <path d="M128.601 15.6375C131.113 15.6375 132.726 17.5875 132.201 19.95C131.788 21.7125 130.026 22.8 128.001 22.5C125.976 22.2 124.776 20.775 124.888 18.825C125.001 16.95 126.538 15.6375 128.601 15.6375Z" fill="white"/>
  </g>
  <mask id="mask17_552_91639" style="mask-type:luminance" maskUnits="userSpaceOnUse" x="0" y="0" width="205" height="60">
    <path d="M204.088 0H0.0126953V60H204.088V0Z" fill="white"/>
  </mask>
  <g mask="url(#mask17_552_91639)">
    <path d="M204.05 32.8499C203.938 31.1999 203.413 29.5875 202.55 28.2L197.563 33.1875V33.2249C197.675 34.0874 197.638 34.9874 197.488 35.8499C197.075 38.0999 195.088 39.7125 192.763 39.6375C192.275 39.6375 191.825 39.5624 191.375 39.4124L192.388 38.4L186.725 39.3L185.825 44.9625L187.025 43.7625C188.788 44.5875 190.7 45 192.65 44.9625C193.1 44.925 193.55 44.9249 194 44.8874C194.3 44.85 194.638 44.8125 194.938 44.775C198.575 44.175 201.425 42.4875 203.075 39.1125C203.938 37.1625 204.275 34.9874 204.05 32.8499Z" fill="white"/>
  </g>
  <mask id="mask18_552_91639" style="mask-type:luminance" maskUnits="userSpaceOnUse" x="0" y="0" width="205" height="60">
    <path d="M204.088 0H0.0126953V60H204.088V0Z" fill="white"/>
  </mask>
  <g mask="url(#mask18_552_91639)">
    <path d="M188.187 32.625C188.675 30.4125 190.662 28.875 192.95 28.95C193.512 28.95 194.112 29.0625 194.637 29.25L193.475 30.4125L199.137 29.5125L200.037 23.85L198.95 24.9375C198.275 24.6 197.6 24.3 196.887 24.1125C194.825 23.5125 192.687 23.4375 190.587 23.8125C186.612 24.4875 183.65 26.5125 182.225 30.4125C181.662 31.9875 181.437 33.7125 181.587 35.4C181.7 37.275 182.3 39.1125 183.35 40.6875L188.187 35.85C187.925 34.7625 187.925 33.675 188.187 32.625Z" fill="white"/>
  </g>
  <mask id="mask19_552_91639" style="mask-type:luminance" maskUnits="userSpaceOnUse" x="0" y="0" width="205" height="60">
    <path d="M204.088 0H0.0126953V60H204.088V0Z" fill="white"/>
  </mask>
  <g mask="url(#mask19_552_91639)">
    <path d="M160.176 39.6V39.45C160.176 39.4125 160.176 39.375 160.176 39.375C160.176 39.1125 160.251 38.8125 160.363 38.55C160.813 37.425 162.013 36.7875 163.176 37.0125C163.701 37.0875 164.188 37.35 164.526 37.725C164.526 37.725 164.563 37.725 164.563 37.7625L164.601 37.725C165.013 37.3125 165.613 37.05 166.213 36.975C166.438 36.975 166.626 36.975 166.851 37.0125C167.338 37.0875 167.826 37.3125 168.163 37.6875C168.763 38.25 169.063 39.0375 168.951 39.8625C168.913 40.125 168.838 40.3875 168.726 40.6125C168.576 40.9125 168.388 41.175 168.163 41.4C166.963 42.6 165.763 43.8 164.563 45C164.563 45 164.563 45 164.526 45.0375C164.526 45.0375 164.488 45.0375 164.488 45L160.851 41.3625C160.701 41.2125 160.588 41.0625 160.476 40.875C160.251 40.5375 160.138 40.125 160.101 39.7125C160.176 39.675 160.176 39.6375 160.176 39.6Z" fill="#CA1523"/>
  </g>
</svg>