<svg width="33" height="33" viewBox="0 0 33 33" fill="none" xmlns="http://www.w3.org/2000/svg">
<g clip-path="url(#clip0_1023_570)">
<path d="M22.665 13.8854C22.6655 13.9327 22.6655 13.9804 22.6655 14.0307C22.6655 18.1506 19.5325 22.8607 13.8355 22.8607C12.7666 22.8607 11.7449 22.6728 10.7999 22.3274C11.4676 22.2136 12.1043 22.0066 12.6964 21.7189C13.1709 21.4883 13.2733 21.0066 13.2023 20.6422C13.1335 20.2896 12.8952 19.934 12.5249 19.7577C12.0656 19.5391 11.6766 19.1995 11.3992 18.7806C11.5107 18.7503 11.614 18.6915 11.6984 18.6045C11.8208 18.4784 11.8748 18.3229 11.8865 18.1848C11.9091 17.917 11.779 17.6117 11.4816 17.4622C10.7694 17.104 10.2342 16.4517 10.0348 15.6627C10.1257 15.6586 10.2164 15.6372 10.303 15.5969C10.4783 15.5152 10.595 15.3755 10.6617 15.2359C10.7913 14.965 10.7755 14.6082 10.5594 14.332C10.1896 13.8595 9.97003 13.2652 9.97003 12.6195C9.97003 12.3635 10.0036 12.1195 10.0662 11.8889C11.5968 13.4838 13.6656 14.5566 15.9715 14.8365C16.6826 14.9228 17.1167 14.283 17.0985 13.7364C17.0974 13.7058 17.0969 13.6753 17.0969 13.6449C17.0969 12.1129 18.336 10.8657 19.8761 10.8657C20.5939 10.8657 21.2473 11.1346 21.7404 11.5795C21.9629 11.7801 22.2976 11.9152 22.6569 11.83C22.8463 11.7851 23.0333 11.7322 23.2172 11.6719C23.1595 11.8866 23.1984 12.1064 23.278 12.2686C23.3348 12.3841 23.4355 12.5098 23.5722 12.5966C23.4108 12.7548 23.2414 12.9046 23.0646 13.045C22.8065 13.2499 22.6622 13.5623 22.665 13.8854Z" stroke="white"/>
</g>
<defs>
<clipPath id="clip0_1023_570">
<rect width="16" height="14" fill="white" transform="translate(8.79999 9.86377)"/>
</clipPath>
</defs>
</svg>
