<svg width="33" height="33" viewBox="0 0 33 33" fill="none" xmlns="http://www.w3.org/2000/svg">
<g clip-path="url(#clip0_1023_573)">
<path d="M9.79999 10.5137C9.79999 10.5637 10.25 12.0137 10.8 13.7137C11.75 16.8137 11.75 16.9137 10.8 19.9637C10.3 21.6638 9.89999 23.1138 9.94999 23.1638C10.15 23.4138 23.3 17.1637 23.3 16.8637C23.3 16.6637 22 15.9137 20.35 15.1637C18.75 14.4637 15.7 13.0637 13.6 12.1137C11.5 11.1637 9.79999 10.4637 9.79999 10.5137ZM16.05 14.3637L20.05 16.3137L16.35 16.2137L12.65 16.1137L12 14.2137C11.65 13.2137 11.5 12.3637 11.7 12.4137C11.9 12.4137 13.85 13.3137 16.05 14.3637ZM16.05 19.3637C11.6 21.5138 11.25 21.6138 11.55 20.7138C12.85 17.1137 12.45 17.3637 16.4 17.4137L20.05 17.4637L16.05 19.3637Z" fill="white"/>
</g>
<defs>
<clipPath id="clip0_1023_573">
<rect width="14" height="13" fill="white" transform="translate(9.79999 10.3638)"/>
</clipPath>
</defs>
</svg>
