<svg width="33" height="33" viewBox="0 0 33 33" fill="none" xmlns="http://www.w3.org/2000/svg">
<g clip-path="url(#clip0_1023_576)">
<path d="M14.4836 10.8247L14.214 10.8716C14.14 10.8846 12.378 11.2007 10.968 12.3247C10.151 13.0707 8.79999 17.1368 8.79999 20.3638V20.4986L8.86639 20.6138C9.8924 22.3968 12.6754 22.8428 13.3644 22.8638L13.6476 22.8736L14.7062 21.2232L14.6418 21.1822C15.2378 21.2852 15.947 21.3638 16.8 21.3638C17.627 21.3638 18.3185 21.2909 18.9035 21.1919L19.9465 22.8716L20.2355 22.8638C20.9245 22.8428 23.7076 22.3968 24.7336 20.6138L24.8 20.4986V20.3638C24.8 17.1368 23.4496 13.0702 22.6086 12.3032C21.2236 11.2022 19.4619 10.8846 19.3879 10.8716L19.1184 10.8247L18.9328 11.0239C18.8818 11.0779 18.4879 11.5239 18.2629 11.9849C17.5969 11.8799 17.055 11.8638 16.8 11.8638C16.546 11.8638 16.005 11.8828 15.341 11.9868C15.115 11.5258 14.7182 11.0779 14.6672 11.0239L14.4836 10.8247ZM14.1144 11.9185C14.1924 12.0165 14.272 12.1259 14.341 12.2349C14.52 12.5659 14.6616 12.8346 14.7726 13.1196C15.7356 12.8826 16.571 12.8638 16.8 12.8638C17.032 12.8638 17.8932 12.8833 18.8762 13.1313L19.2883 12.2036C19.2853 12.2026 19.2835 12.2027 19.2805 12.2017C19.3445 12.1047 19.4146 12.0065 19.4836 11.9185C19.9876 12.0435 21.0902 12.375 21.9562 13.063C22.3953 13.464 23.759 16.9741 23.798 20.2232C23.102 21.2642 21.3416 21.7334 20.4836 21.8404L19.9426 20.9693C20.6496 20.7693 21.0171 20.5663 21.0461 20.5493L20.5559 19.6763C20.5429 19.6833 19.284 20.3638 16.8 20.3638C14.316 20.3638 13.0571 19.6833 13.0441 19.6763L12.5539 20.5493C12.5829 20.5663 12.9599 20.7712 13.6789 20.9732L13.1203 21.8404C12.2653 21.7344 10.4989 21.2662 9.80194 20.2232C9.84094 16.9751 11.2024 13.4654 11.6164 13.0864C12.5024 12.3814 13.6094 12.0435 14.1144 11.9185ZM14.05 14.8638C13.085 14.8638 12.3 15.7608 12.3 16.8638C12.3 17.9668 13.085 18.8638 14.05 18.8638C15.015 18.8638 15.8 17.9668 15.8 16.8638C15.8 15.7608 15.015 14.8638 14.05 14.8638ZM19.55 14.8638C18.585 14.8638 17.8 15.7608 17.8 16.8638C17.8 17.9668 18.585 18.8638 19.55 18.8638C20.515 18.8638 21.3 17.9668 21.3 16.8638C21.3 15.7608 20.515 14.8638 19.55 14.8638ZM14.05 15.8638C14.456 15.8638 14.8 16.3218 14.8 16.8638C14.8 17.4058 14.456 17.8638 14.05 17.8638C13.644 17.8638 13.3 17.4058 13.3 16.8638C13.3 16.3218 13.644 15.8638 14.05 15.8638ZM19.55 15.8638C19.956 15.8638 20.3 16.3218 20.3 16.8638C20.3 17.4058 19.956 17.8638 19.55 17.8638C19.144 17.8638 18.8 17.4058 18.8 16.8638C18.8 16.3218 19.144 15.8638 19.55 15.8638Z" fill="white"/>
</g>
<defs>
<clipPath id="clip0_1023_576">
<rect width="16" height="14" fill="white" transform="translate(8.79999 9.86377)"/>
</clipPath>
</defs>
</svg>
