<svg width="154" height="49" viewBox="0 0 154 49" fill="none" xmlns="http://www.w3.org/2000/svg">
<g clip-path="url(#clip0_1023_547)">
<path d="M43.4453 29.7027C41.793 29.1519 35.9311 27.6176 31.9183 32.2599C31.0921 28.9159 28.0235 26.6341 24.6008 26.7128C21.1782 26.5948 18.1096 28.9159 17.2834 32.2599C13.3099 27.6963 7.60549 29.0733 5.83514 29.6634C5.91383 31.1583 6.42526 32.614 7.33011 33.8335C12.4444 40.9543 19.6832 43.5508 24.6008 43.6295C24.6008 43.6295 24.6402 43.6295 24.6795 43.6295H24.7189C24.7582 43.6295 24.7975 43.6295 24.8369 43.6295C29.7545 43.5508 36.9933 40.9543 42.0684 33.8335C42.8552 32.6533 43.3666 31.1977 43.4453 29.7027Z" fill="white"/>
<path d="M24.6407 0.865723C37.8199 0.865723 48.4814 11.5272 48.4814 24.7064C48.4814 37.8857 37.8199 48.5471 24.6407 48.5471C11.4614 48.5471 0.799988 37.8857 0.799988 24.7064C0.799988 11.5272 11.5008 0.865723 24.6407 0.865723Z" fill="#CF1324"/>
<path d="M10.6361 13.2582C11.8557 11.8419 13.39 10.6617 15.0423 9.79618C11.895 6.13746 9.37719 4.32777 8.27564 3.89502C7.33145 6.8456 8.43301 11.4485 9.49521 14.6745C9.84928 14.2024 10.2427 13.7303 10.6361 13.2582Z" fill="#EA5D0C"/>
<path d="M38.5667 13.2582C38.9207 13.6516 39.2355 14.045 39.5502 14.4778C40.5729 11.2518 41.6351 6.76692 40.6909 3.89502C39.5895 4.32777 37.1111 6.09812 34.0031 9.7175C35.7341 10.583 37.3078 11.8026 38.5667 13.2582Z" fill="#EA5D0C"/>
<path d="M38.5675 13.2581C37.2693 11.8025 35.735 10.5829 34.0039 9.71743C37.1119 6.13739 39.5904 4.32771 40.6919 3.89496C41.636 6.76685 40.5738 11.2517 39.551 14.4777C39.2363 14.0449 38.9216 13.6515 38.5675 13.2581ZM10.6353 13.2581C10.2419 13.7302 9.84852 14.2023 9.49445 14.7137C8.43224 11.4878 7.33069 6.84553 8.27487 3.9343C9.37643 4.36705 11.8943 6.17673 15.0415 9.83545C13.3892 10.6616 11.8943 11.8418 10.6353 13.2581ZM43.367 27.893C42.7769 23.9196 41.8721 20.4969 40.4951 17.6643C41.636 14.9498 42.4229 12.0779 42.8163 9.16665C43.0917 6.84553 43.013 4.44574 42.1081 2.47868C41.9114 2.04593 41.4393 1.80988 40.9279 1.88857C40.1411 2.04593 38.7249 2.55736 36.8365 4.09166C34.8694 5.70464 33.0991 7.55367 31.5648 9.59941C29.3617 8.93061 27.0406 8.57654 24.7194 8.57654C24.6801 8.57654 24.6408 8.57654 24.6014 8.57654C24.5621 8.57654 24.5227 8.57654 24.4834 8.57654C22.0836 8.5372 19.7231 8.93061 17.4413 9.63875C15.8677 7.59301 14.0974 5.70464 12.091 4.05233C10.1632 2.51802 8.78631 2.00658 7.99949 1.84922C7.52739 1.77054 7.0553 2.00658 6.81925 2.43934C5.91441 4.40639 5.83573 6.76685 6.11112 9.08797C6.54387 12.1172 7.37003 15.0678 8.55026 17.861C7.25201 20.6542 6.3865 23.9982 5.79639 27.8537C5.7177 28.4438 5.67836 29.0339 5.7177 29.624C7.48805 29.0339 13.2319 27.657 17.166 32.2205C17.9921 28.8765 21.0607 26.5948 24.4834 26.6734C25.703 26.6341 26.9226 26.9095 28.0241 27.4603C29.9125 28.4438 31.2894 30.1748 31.8008 32.2205C35.8136 27.5783 41.6754 29.0732 43.3277 29.6634C43.4851 29.1126 43.4457 28.4831 43.367 27.893Z" fill="#F28F3C"/>
<path d="M29.8729 36.6661C29.6762 37.0595 29.5582 37.4529 29.5582 37.8857C29.5582 38.0037 29.4401 38.1217 29.2828 38.1217H29.0074L28.3779 39.774C28.3779 39.8134 28.2992 39.8527 28.2599 39.8527C28.2206 39.8527 28.2206 39.8527 28.1812 39.8134C28.0632 39.656 27.9452 39.538 27.8665 39.3806C27.8271 39.3413 27.8271 39.3019 27.8271 39.2626V37.3742C26.7649 37.5316 25.6634 37.6103 24.6012 37.5709H24.5225C23.4603 37.5709 22.3587 37.4922 21.2965 37.3349V39.2233C21.2965 39.2626 21.2965 39.3019 21.2572 39.3413C21.1785 39.4986 21.0605 39.656 20.9425 39.774C20.9031 39.8134 20.8244 39.8134 20.7851 39.774L20.7457 39.7347L20.1163 38.0824H19.8409C19.7229 38.0824 19.6049 38.0037 19.5655 37.8463C19.5655 37.4136 19.4475 37.0202 19.2508 36.6267C19.2114 36.5481 19.2508 36.4694 19.3295 36.43H19.3688C19.8802 36.43 20.9818 36.3907 21.2178 36.43H23.1456C23.3423 36.1153 23.6176 35.9186 23.9324 35.8006V34.5023C21.6112 34.2269 21.3359 32.1025 21.3752 30.8436C21.3752 30.3322 21.808 29.8994 22.3194 29.8994H26.6469C27.1583 29.8994 27.5911 30.2928 27.5911 30.8436C27.6304 32.1025 27.355 34.1876 25.0339 34.5023V35.8006C25.3487 35.9186 25.6634 36.1546 25.8207 36.43H27.7485C27.9845 36.43 29.0861 36.43 29.5975 36.43C29.6762 36.43 29.7549 36.5087 29.7549 36.5874C29.8729 36.6267 29.8729 36.6267 29.8729 36.6661Z" fill="#22263F"/>
<path d="M29.8725 36.6661C29.6758 37.0595 29.5578 37.4529 29.5578 37.8857C29.5578 38.0037 29.4398 38.1217 29.2824 38.1217H29.007L28.3776 39.774C28.3776 39.8134 28.2989 39.8527 28.2596 39.8527C28.2202 39.8527 28.2202 39.8527 28.1809 39.8134C28.0629 39.656 27.9448 39.538 27.8661 39.3806C27.8268 39.3413 27.8268 39.3019 27.8268 39.2626V37.3742C26.7646 37.5316 25.663 37.6103 24.6008 37.6103H24.5222C23.4599 37.6103 22.3584 37.5316 21.2962 37.3742V39.2626C21.2962 39.3019 21.2962 39.3413 21.2568 39.3806C21.1782 39.538 21.0601 39.6954 20.9421 39.8134C20.9028 39.8527 20.8241 39.8527 20.7848 39.8134L20.7454 39.774L20.116 38.1217H19.8406C19.7225 38.1217 19.6045 38.043 19.5652 37.8857C19.5652 37.4529 19.4472 37.0595 19.2505 36.6661C19.2111 36.5874 19.2505 36.5087 19.3291 36.4694H19.3685C19.8799 36.4694 20.9815 36.43 21.2175 36.43H23.1452C23.3419 36.1153 23.6173 35.9186 23.932 35.8006V34.5023C21.6109 34.2269 21.3355 32.1025 21.3749 30.8436C21.3749 30.3322 21.8076 29.8994 22.3191 29.8994H26.6466C27.158 29.8994 27.5908 30.2928 27.5908 30.8436C27.6301 32.1025 27.3547 34.1876 25.0336 34.5023V35.8006C25.3483 35.9186 25.663 36.1547 25.8204 36.43H27.7481C27.9842 36.43 29.0857 36.43 29.5972 36.4694C29.6758 36.4694 29.7545 36.5481 29.7545 36.6268C29.8725 36.6268 29.8725 36.6268 29.8725 36.6661ZM26.8826 38.6332C26.8826 38.9085 26.7253 39.1446 26.4499 39.2233C26.4105 39.2233 26.3712 39.2233 26.3319 39.2233C25.9778 39.2233 25.9778 38.7905 25.5844 38.7905C25.2303 38.7905 25.1516 39.8527 24.6008 39.8921C24.6008 39.8921 24.6008 39.8921 24.5615 39.8921C24.0501 39.8134 23.9714 38.7905 23.6173 38.7905C23.2632 38.7905 23.2239 39.2233 22.8698 39.2233C22.8305 39.2233 22.7912 39.2233 22.7518 39.2233C22.4764 39.1446 22.3191 38.9085 22.3191 38.6332V38.3184H26.8826V38.6332ZM43.4453 29.7027C41.793 29.1519 35.9311 27.6176 31.9183 32.2599C31.3675 30.2142 29.9906 28.4831 28.1415 27.4996C27.04 26.9882 25.8204 26.7128 24.6008 26.7128C21.1782 26.5948 18.1096 28.9159 17.2834 32.2599C13.3099 27.6963 7.60549 29.0733 5.83514 29.6634C5.91383 31.1583 6.42526 32.614 7.33011 33.8335C12.4444 40.9543 19.6832 43.5508 24.6008 43.6295H24.6795H24.7189C24.7582 43.6295 24.7975 43.6295 24.8369 43.6295C26.4105 43.5902 27.9448 43.3541 29.4398 42.9214C34.5541 41.4264 39.039 38.2004 42.1077 33.8335C42.8552 32.6533 43.3666 31.1977 43.4453 29.7027Z" fill="white"/>
<path d="M26.8832 38.3186V38.6333C26.8832 38.9087 26.7258 39.1448 26.4505 39.2234C26.4111 39.2234 26.3718 39.2234 26.3324 39.2234C25.9784 39.2234 25.9784 38.7907 25.585 38.7907C25.1915 38.7907 25.1522 39.8529 24.6014 39.8922C24.6014 39.8922 24.6014 39.8922 24.5621 39.8922C24.0506 39.8136 23.972 38.7907 23.6179 38.7907C23.2638 38.7907 23.2245 39.2234 22.8704 39.2234C22.8311 39.2234 22.7917 39.2234 22.7524 39.2234C22.477 39.1448 22.3196 38.9087 22.3196 38.6333V38.3186H26.8832Z" fill="#22263F"/>
<path d="M35.8142 22.8181L35.6175 21.1657C35.6175 20.8903 35.3814 20.6543 35.106 20.6543C35.0273 20.6543 34.988 20.6543 34.9093 20.6936C33.139 21.3624 28.064 23.6836 28.6541 25.1785C29.1655 26.2014 33.2963 25.0998 35.3421 23.6836C35.6568 23.5262 35.8142 23.1721 35.8142 22.8181Z" fill="#22263F"/>
<path d="M13.5071 22.8181L13.7038 21.1657C13.7038 20.8903 13.9398 20.6543 14.2152 20.6543C14.2939 20.6543 14.3332 20.6543 14.3726 20.6936C16.1429 21.3624 21.2179 23.6836 20.6278 25.1785C20.1164 26.2014 15.9856 25.0998 13.9398 23.6836C13.6644 23.5262 13.5071 23.1721 13.5071 22.8181Z" fill="#22263F"/>
<path d="M20.314 20.1822C19.2911 20.1036 17.2061 19.9068 16.5373 19.4741C15.6718 18.9233 16.0258 16.4055 19.1731 16.7596C21.5729 17.0349 21.8877 18.6873 21.4156 19.6315C21.1795 20.0249 20.7468 20.2216 20.314 20.1822Z" fill="white"/>
<path d="M29.0076 20.1822C30.0305 20.1036 32.1155 19.9068 32.7843 19.4741C33.6498 18.9233 33.2958 16.4055 30.1485 16.7596C27.7487 17.0349 27.434 18.6873 27.906 19.6315C28.1028 20.0249 28.5748 20.2216 29.0076 20.1822Z" fill="white"/>
<path d="M57.9621 32.4171L60.4799 28.8764C62.2896 30.2926 64.4927 31.0401 66.8925 31.0401C69.3317 31.0401 70.9053 30.1353 70.9053 28.719C70.9053 27.3814 69.6071 26.6733 66.6958 26.3585C61.0307 25.7291 58.5129 23.8014 58.5129 20.064C58.5129 16.2479 61.9355 13.6514 67.0105 13.6514C69.9218 13.6514 72.7543 14.5169 74.8788 16.0118L72.597 19.4345C71.0233 18.333 69.1743 17.7428 67.2466 17.7428C64.8468 17.7428 63.2731 18.6083 63.2731 19.9459C63.2731 21.2442 64.414 21.913 67.3253 22.2671C72.9511 22.9359 75.6656 25.0603 75.6656 28.7977C75.6656 32.7318 72.1249 35.3676 66.9319 35.3676C63.5485 35.3283 60.2832 34.2661 57.9621 32.4171Z" fill="white"/>
<path d="M93.0155 26.5949V34.8565H88.3733V26.8703C88.3733 24.9819 87.3897 23.841 85.7374 23.841C83.8884 23.841 82.6688 25.1786 82.6688 27.1457V34.8565H78.0266V14.1238H82.6688V21.8346C83.7703 20.5757 85.2653 19.9069 87.1537 19.9069C90.7731 19.9069 93.0155 22.5034 93.0155 26.5949Z" fill="white"/>
<path d="M95.7297 16.2481C95.7297 14.7531 96.8706 13.6909 98.4442 13.6909C100.018 13.6909 101.159 14.7531 101.159 16.2481C101.159 17.743 100.018 18.7659 98.4442 18.7659C96.8706 18.7659 95.7297 17.743 95.7297 16.2481ZM96.1231 20.2215H100.765V34.8564H96.1231V20.2215Z" fill="white"/>
<path d="M120.239 27.5388C120.239 32.0237 117.327 35.171 113.236 35.171C111.269 35.171 109.577 34.4629 108.397 33.1253L108.082 34.8563H104.07V14.1235H108.712V21.6377C109.892 20.5361 111.426 19.946 113.236 19.946C117.327 19.946 120.239 23.054 120.239 27.5388ZM112.095 31.2369C114.18 31.2369 115.596 29.7419 115.596 27.5388C115.596 25.3357 114.18 23.8408 112.095 23.8408C110.049 23.8408 108.633 25.3357 108.633 27.5388C108.633 29.7419 110.049 31.2369 112.095 31.2369Z" fill="white"/>
<path d="M121.695 32.6531C121.695 31.1581 122.835 30.1353 124.409 30.1353C125.943 30.1353 127.084 31.1581 127.084 32.6531C127.084 34.1087 125.943 35.1709 124.409 35.1709C122.835 35.1709 121.695 34.1087 121.695 32.6531Z" fill="white"/>
<path d="M129.445 16.2481C129.445 14.7531 130.585 13.6909 132.159 13.6909C133.733 13.6909 134.874 14.7531 134.874 16.2481C134.874 17.743 133.733 18.7659 132.159 18.7659C130.585 18.7659 129.445 17.743 129.445 16.2481ZM129.838 20.2215H134.48V34.8564H129.838V20.2215Z" fill="white"/>
<path d="M136.921 27.5389C136.921 22.9753 140.029 19.9067 144.947 19.9067C149.904 19.9067 153.012 22.9753 153.012 27.5389C153.012 32.1025 149.904 35.1711 144.947 35.1711C140.029 35.2104 136.921 32.1025 136.921 27.5389ZM144.947 31.237C147.032 31.237 148.369 29.6633 148.369 27.5389C148.369 25.4145 146.992 23.8408 144.947 23.8408C142.901 23.8408 141.524 25.4145 141.524 27.5389C141.524 29.6633 142.901 31.237 144.947 31.237Z" fill="white"/>
</g>
<defs>
<clipPath id="clip0_1023_547">
<rect width="152.25" height="47.9961" fill="white" transform="translate(0.799988 0.865723)"/>
</clipPath>
</defs>
</svg>
